<svg width="30" height="43" viewBox="0 0 30 43" fill="none" xmlns="http://www.w3.org/2000/svg">
<path d="M0 0H30V42.3077L15 33.1072L0 42.3077V0Z" fill="#00005B"/>
<path d="M8.6626 23.2307L9.40998 20.9345H13.0436L13.791 23.2307H16.0725L12.6011 13.1608H9.85742L6.38113 23.2307H8.6626ZM9.95084 19.2726L11.1899 15.4619H11.2686L12.5077 19.2726H9.95084ZM20.3355 23.3782C22.2039 23.3782 23.4626 22.4686 23.7577 21.0673L21.8204 20.9394C21.609 21.5147 21.0681 21.8146 20.3699 21.8146C19.3226 21.8146 18.6588 21.1213 18.6588 19.9954V19.9904H23.8019V19.4152C23.8019 16.8485 22.2482 15.5799 20.2519 15.5799C18.0294 15.5799 16.5887 17.1583 16.5887 19.4889C16.5887 21.8835 18.0097 23.3782 20.3355 23.3782ZM18.6588 18.6924C18.703 17.8319 19.357 17.1435 20.2863 17.1435C21.1959 17.1435 21.8253 17.7926 21.8302 18.6924H18.6588Z" fill="#9999FF"/>
</svg>
