<svg width="16" height="12" viewBox="0 0 16 12" fill="none" xmlns="http://www.w3.org/2000/svg">
<path d="M4.73931 0.307617C5.21931 0.307617 5.65517 0.352823 6.04966 0.446247C6.44414 0.539672 6.78345 0.690357 7.06483 0.901316C7.34621 1.11227 7.56414 1.39255 7.72138 1.74214C7.87586 2.09173 7.9531 2.52269 7.9531 3.03501C7.9531 3.58953 7.83724 4.05063 7.60828 4.42132C7.37655 4.792 7.03724 5.09337 6.58483 5.33145C7.20552 5.52734 7.66897 5.86789 7.97517 6.35611C8.28138 6.84433 8.4331 7.432 8.4331 8.11912C8.4331 8.67365 8.33379 9.15282 8.13793 9.55967C7.93931 9.96652 7.67448 10.298 7.34069 10.5542C7.0069 10.8104 6.62621 11.0002 6.19862 11.1238C5.77103 11.2473 5.33241 11.3076 4.88 11.3076H0V0.307617H4.73931ZM4.45793 4.76186C4.85241 4.76186 5.17793 4.6594 5.43172 4.45447C5.68552 4.24954 5.81241 3.91501 5.81241 3.45392C5.81241 3.19775 5.77103 2.9868 5.68552 2.82104C5.6 2.65529 5.4869 2.52871 5.34621 2.43529C5.20552 2.34186 5.04276 2.27858 4.86069 2.24241C4.67862 2.20625 4.48828 2.18817 4.28966 2.18817H2.21517V4.76186H4.45793ZM4.58483 9.43008C4.8 9.43008 5.0069 9.40597 5.20552 9.36077C5.40414 9.31556 5.57793 9.23721 5.7269 9.12871C5.87586 9.02022 5.99724 8.87556 6.08552 8.68871C6.17379 8.50488 6.22069 8.2668 6.22069 7.98049C6.22069 7.41693 6.07448 7.0131 5.78483 6.772C5.49241 6.5309 5.10897 6.41036 4.62897 6.41036H2.21517V9.43008H4.58483Z" fill="#1769FF"/>
<path d="M11.2191 9.19814C11.5198 9.51759 11.9529 9.67431 12.5157 9.67431C12.9212 9.67431 13.2688 9.5628 13.5585 9.3428C13.8509 9.1228 14.0274 8.88773 14.0936 8.64061H15.8564C15.575 9.59595 15.1419 10.2801 14.5598 10.6899C13.9778 11.0998 13.2716 11.3077 12.444 11.3077C11.8702 11.3077 11.3543 11.2083 10.8936 11.0064C10.4329 10.8075 10.0412 10.5212 9.72397 10.1505C9.40397 9.77979 9.15846 9.33979 8.98466 8.82444C8.81087 8.31212 8.7226 7.74554 8.7226 7.13075C8.7226 6.53403 8.81087 5.97951 8.99018 5.46718C9.16949 4.95485 9.42328 4.50883 9.75156 4.13513C10.0798 3.76143 10.4743 3.46609 10.9295 3.2491C11.3847 3.03212 11.8923 2.92664 12.4467 2.92664C13.0674 2.92664 13.6081 3.05622 14.0688 3.31842C14.5295 3.58061 14.9074 3.93321 15.2054 4.37321C15.5005 4.81622 15.7157 5.31951 15.8481 5.88307C15.9805 6.44965 16.0274 7.03732 15.9888 7.65513H10.7281C10.7557 8.36636 10.9185 8.87869 11.2191 9.19814ZM13.484 5.00609C13.244 4.71979 12.8798 4.57513 12.3916 4.57513C12.0716 4.57513 11.8067 4.6354 11.5943 4.75294C11.3819 4.87047 11.2136 5.01814 11.0867 5.19294C10.9598 5.36773 10.8716 5.55157 10.8191 5.74746C10.7667 5.94335 10.7364 6.11814 10.7281 6.27184H13.986C13.8895 5.71431 13.724 5.2954 13.484 5.00609Z" fill="#1769FF"/>
<path d="M14.458 0.865112H10.3862V2.09772H14.458V0.865112Z" fill="#1769FF"/>
</svg>
