<svg width="34" height="39" viewBox="0 0 34 39" fill="none" xmlns="http://www.w3.org/2000/svg">
<path d="M14.2 6.26C13.6696 6.35548 13.1988 6.65776 12.8912 7.10034C12.5837 7.54293 12.4645 8.08957 12.56 8.62C12.6555 9.15043 12.9578 9.62121 13.4003 9.92877C13.8429 10.2363 14.3896 10.3555 14.92 10.26C15.5807 10.1459 16.2496 10.0857 16.92 10.08C20.1026 10.08 23.1548 11.3443 25.4053 13.5947C27.6557 15.8452 28.92 18.8974 28.92 22.08C28.9143 22.7504 28.8542 23.4193 28.74 24.08C28.6465 24.5996 28.7622 25.1351 29.062 25.5697C29.3617 26.0043 29.8211 26.3028 30.34 26.4H30.7C31.1736 26.4077 31.6345 26.2471 32.0008 25.9468C32.367 25.6465 32.6148 25.2259 32.7 24.76C32.8857 23.8513 32.9861 22.9273 33 22C32.9909 18.4395 31.7944 14.9839 29.6 12.18L31.42 10.38C31.7966 10.0034 32.0082 9.4926 32.0082 8.96C32.0082 8.4274 31.7966 7.91661 31.42 7.54C31.0434 7.16339 30.5326 6.95182 30 6.95182C29.4674 6.95182 28.9566 7.16339 28.58 7.54L26.78 9.36C23.9818 7.18834 20.542 6.00659 17 6C16.0606 5.9982 15.1231 6.08526 14.2 6.26ZM13 4H21C21.5304 4 22.0391 3.78929 22.4142 3.41421C22.7893 3.03914 23 2.53043 23 2C23 1.46957 22.7893 0.960859 22.4142 0.585786C22.0391 0.210714 21.5304 0 21 0H13C12.4696 0 11.9609 0.210714 11.5858 0.585786C11.2107 0.960859 11 1.46957 11 2C11 2.53043 11.2107 3.03914 11.5858 3.41421C11.9609 3.78929 12.4696 4 13 4ZM19.98 22.16C19.98 22.16 19.98 22.06 19.98 22C19.98 21.94 19.98 21.9 19.98 21.84L22.66 19.18C22.8465 18.9935 22.9944 18.7721 23.0953 18.5285C23.1962 18.2849 23.2482 18.0237 23.2482 17.76C23.2482 17.4963 23.1962 17.2351 23.0953 16.9915C22.9944 16.7479 22.8465 16.5265 22.66 16.34C22.4735 16.1535 22.2521 16.0056 22.0085 15.9047C21.7649 15.8038 21.5037 15.7518 21.24 15.7518C20.9763 15.7518 20.7152 15.8038 20.4715 15.9047C20.2279 16.0056 20.0065 16.1535 19.82 16.34L17.16 19H16.84L4.42 6.58C4.0434 6.20339 3.53261 5.99182 3 5.99182C2.4674 5.99182 1.95661 6.20339 1.58 6.58C1.2034 6.95661 0.991821 7.4674 0.991821 8C0.991821 8.5326 1.2034 9.04339 1.58 9.42L2.54 10.38L4.36 12.2C1.98694 15.2792 0.816128 19.1171 1.0663 22.9965C1.31648 26.876 2.97053 30.5317 5.71943 33.2806C8.46833 36.0295 12.124 37.6835 16.0035 37.9337C19.883 38.1839 23.7208 37.0131 26.8 34.64L29.58 37.42C29.7659 37.6075 29.9871 37.7562 30.2309 37.8578C30.4746 37.9593 30.736 38.0116 31 38.0116C31.264 38.0116 31.5254 37.9593 31.7692 37.8578C32.0129 37.7562 32.2341 37.6075 32.42 37.42C32.6075 37.2341 32.7563 37.0129 32.8578 36.7692C32.9593 36.5254 33.0116 36.264 33.0116 36C33.0116 35.736 32.9593 35.4746 32.8578 35.2308C32.7563 34.9871 32.6075 34.7659 32.42 34.58L19.98 22.16ZM17 34C14.7897 34.0061 12.6207 33.4017 10.7321 32.2533C8.84355 31.1049 7.30885 29.4573 6.29727 27.492C5.28569 25.5268 4.83655 23.3204 4.99937 21.1161C5.16219 18.9118 5.93066 16.7953 7.22 15L14.02 21.78C14.02 21.78 14.02 21.88 14.02 21.94C14.012 22.3373 14.0831 22.7322 14.2291 23.1019C14.375 23.4715 14.5929 23.8084 14.8702 24.0931C15.1474 24.3778 15.4785 24.6046 15.8441 24.7603C16.2097 24.9159 16.6026 24.9974 17 25H17.16L23.94 31.8C21.9103 33.2343 19.4853 34.003 17 34Z" fill="#18A0FB"/>
</svg>
