<svg width="42" height="42" viewBox="0 0 42 42" fill="none" xmlns="http://www.w3.org/2000/svg">
<path d="M34.001 0.41903L4.30247 10.3185C3.13221 10.711 2.11147 11.4548 1.37942 12.4486C0.647362 13.4424 0.239621 14.6378 0.211786 15.8718C0.183951 17.1058 0.537376 18.3184 1.22388 19.3442C1.91038 20.37 2.89654 21.1591 4.04791 21.604L15.0364 25.8042C15.297 25.9108 15.5338 26.0682 15.7329 26.2673C15.932 26.4664 16.0894 26.7032 16.196 26.9638L20.3962 37.9523C20.7546 38.8857 21.3406 39.7147 22.1008 40.364C22.8611 41.0134 23.7716 41.4624 24.7496 41.6704C25.7275 41.8784 26.742 41.8386 27.7007 41.5548C28.6594 41.271 29.532 40.7521 30.2391 40.0453C30.8947 39.3765 31.3924 38.5696 31.6958 37.6836L41.5953 7.98507C41.9443 6.92949 41.9931 5.79769 41.7364 4.71596C41.4796 3.63423 40.9274 2.64511 40.1412 1.85896C39.3551 1.07281 38.3659 0.520548 37.2842 0.263794C36.2025 0.00703651 35.0707 0.0558844 34.0151 0.404887L34.001 0.41903ZM37.7911 6.72642L27.8916 36.4249C27.7564 36.8097 27.5068 37.144 27.1763 37.383C26.8458 37.6219 26.4501 37.7541 26.0423 37.7618C25.6345 37.7695 25.2341 37.6523 24.8948 37.426C24.5555 37.1997 24.2935 36.8751 24.1439 36.4956L19.9295 25.5213C19.8719 25.3762 19.8058 25.2345 19.7315 25.0971L29.4755 15.3531C29.8505 14.9781 30.0613 14.4693 30.0613 13.9389C30.0613 13.4085 29.8505 12.8998 29.4755 12.5247C29.1004 12.1496 28.5917 11.9389 28.0613 11.9389C27.5308 11.9389 27.0221 12.1496 26.647 12.5247L16.9031 22.2686C16.7657 22.1944 16.624 22.1283 16.4789 22.0706L5.50455 17.8563C5.12511 17.7067 4.80046 17.4447 4.57414 17.1054C4.34783 16.7661 4.23066 16.3657 4.23835 15.9579C4.24605 15.5501 4.37824 15.1544 4.61719 14.8239C4.85615 14.4933 5.19045 14.2438 5.57527 14.1086L35.2738 4.20912C35.6241 4.09615 35.9988 4.08205 36.3566 4.16838C36.7144 4.2547 37.0415 4.4381 37.3018 4.69839C37.5621 4.95867 37.7455 5.28573 37.8318 5.64356C37.9181 6.00138 37.904 6.37609 37.7911 6.72642Z" fill="#18A0FB"/>
</svg>
