<svg width="38" height="40" viewBox="0 0 38 40" fill="none" xmlns="http://www.w3.org/2000/svg">
<path d="M36.74 30.5L31.32 21.14C32.4291 19.103 33.0069 16.8193 33 14.5C33 10.787 31.525 7.22601 28.8995 4.6005C26.274 1.975 22.7131 0.5 19 0.5C15.287 0.5 11.726 1.975 9.10053 4.6005C6.47502 7.22601 5.00002 10.787 5.00002 14.5C4.99314 16.8193 5.57093 19.103 6.68002 21.14L1.26002 30.5C1.08415 30.8046 0.991719 31.1502 0.992066 31.502C0.992414 31.8537 1.08552 32.1992 1.262 32.5034C1.43848 32.8077 1.69209 33.0601 1.99724 33.235C2.30238 33.41 2.64828 33.5014 3.00002 33.5H8.74002L11.66 38.42C11.7585 38.5831 11.8797 38.7312 12.02 38.86C12.3908 39.2174 12.8851 39.4179 13.4 39.42H13.68C13.982 39.3787 14.2705 39.2689 14.5235 39.0991C14.7765 38.9292 14.9874 38.7038 15.14 38.44L19 31.8L22.86 38.5C23.0149 38.7601 23.2267 38.9816 23.4796 39.1479C23.7325 39.3142 24.0199 39.4209 24.32 39.46H24.6C25.1219 39.4631 25.6243 39.2622 26 38.9C26.1345 38.7786 26.2493 38.6368 26.34 38.48L29.26 33.56H35C35.3524 33.5614 35.699 33.4696 36.0045 33.294C36.3101 33.1184 36.5638 32.8652 36.74 32.56C36.9269 32.2489 37.0256 31.8929 37.0256 31.53C37.0256 31.1671 36.9269 30.8111 36.74 30.5ZM13.38 33.56L11.6 30.58C11.4248 30.2843 11.1762 30.0388 10.8785 29.8672C10.5807 29.6955 10.2437 29.6035 9.90002 29.6H6.44002L9.30002 24.64C11.2695 26.5378 13.7517 27.8171 16.44 28.32L13.38 33.56ZM19 24.5C17.0222 24.5 15.0888 23.9135 13.4443 22.8147C11.7998 21.7159 10.5181 20.1541 9.76123 18.3268C9.00435 16.4996 8.80632 14.4889 9.19217 12.5491C9.57802 10.6093 10.5304 8.82746 11.929 7.42893C13.3275 6.03041 15.1093 5.078 17.0491 4.69215C18.9889 4.30629 20.9996 4.50433 22.8269 5.2612C24.6541 6.01808 26.2159 7.29981 27.3147 8.9443C28.4135 10.5888 29 12.5222 29 14.5C29 17.1522 27.9465 19.6957 26.0711 21.5711C24.1957 23.4464 21.6522 24.5 19 24.5ZM28.1 29.6C27.7563 29.6035 27.4193 29.6955 27.1216 29.8672C26.8238 30.0388 26.5753 30.2843 26.4 30.58L24.62 33.56L21.58 28.26C24.259 27.7468 26.732 26.4686 28.7 24.58L31.56 29.54L28.1 29.6Z" fill="#18A0FB"/>
</svg>
