<svg width="36" height="38" viewBox="0 0 36 38" fill="none" xmlns="http://www.w3.org/2000/svg">
<path d="M4.58 14.6C4.25396 14.9275 4.05136 15.3577 4.00665 15.8176C3.96194 16.2776 4.07787 16.7388 4.33474 17.1229C4.59161 17.507 4.97356 17.7903 5.41569 17.9247C5.85781 18.0591 6.33283 18.0362 6.76 17.86C7.00306 17.7513 7.22616 17.6026 7.42 17.42C7.5999 17.2357 7.74251 17.0184 7.84 16.78C7.95433 16.5363 8.00916 16.269 8 16C7.99779 15.4753 7.78949 14.9725 7.42 14.6C7.23407 14.4125 7.01287 14.2638 6.76915 14.1622C6.52543 14.0607 6.26402 14.0084 6 14.0084C5.73598 14.0084 5.47456 14.0607 5.23085 14.1622C4.98713 14.2638 4.76592 14.4125 4.58 14.6ZM6 4C6.53043 4 7.03914 4.21071 7.41421 4.58579C7.78928 4.96086 8 5.46957 8 6C8 6.53043 7.78928 7.03914 7.41421 7.41421C7.03914 7.78928 6.53043 8 6 8C5.46957 8 4.96086 8.21071 4.58579 8.58579C4.21071 8.96086 4 9.46957 4 10C4 10.5304 4.21071 11.0391 4.58579 11.4142C4.96086 11.7893 5.46957 12 6 12C7.05306 11.9993 8.08739 11.7215 8.99907 11.1945C9.91074 10.6674 10.6677 9.90973 11.1937 8.9975C11.7198 8.08527 11.9966 7.05065 11.9962 5.9976C11.9957 4.94454 11.7182 3.91014 11.1913 2.99833C10.6645 2.08653 9.907 1.32944 8.9949 0.803126C8.0828 0.276817 7.04825 -0.000168588 5.99519 7.6983e-08C4.94213 0.000168742 3.90767 0.277486 2.99574 0.804087C2.0838 1.33069 1.32653 2.08802 0.8 3C0.667762 3.22827 0.581989 3.48044 0.547622 3.742C0.513256 4.00355 0.530974 4.26933 0.599756 4.52401C0.668538 4.77869 0.787026 5.01724 0.948394 5.22594C1.10976 5.43463 1.31082 5.60934 1.54 5.74C1.99923 6.00074 2.54296 6.06928 3.05253 5.93064C3.5621 5.79201 3.99616 5.45746 4.26 5C4.43621 4.69479 4.68994 4.44156 4.99549 4.26595C5.30105 4.09035 5.64758 3.9986 6 4ZM30 6H18C17.4696 6 16.9609 6.21071 16.5858 6.58579C16.2107 6.96086 16 7.46957 16 8C16 8.53043 16.2107 9.03914 16.5858 9.41421C16.9609 9.78928 17.4696 10 18 10H30C30.5304 10 31.0391 10.2107 31.4142 10.5858C31.7893 10.9609 32 11.4696 32 12V31.44L28.86 28.54C28.4912 28.1947 28.0053 28.0017 27.5 28H10C9.46957 28 8.96086 27.7893 8.58579 27.4142C8.21071 27.0391 8 26.5304 8 26V24C8 23.4696 7.78928 22.9609 7.41421 22.5858C7.03914 22.2107 6.53043 22 6 22C5.46957 22 4.96086 22.2107 4.58579 22.5858C4.21071 22.9609 4 23.4696 4 24V26C4 27.5913 4.63214 29.1174 5.75736 30.2426C6.88258 31.3679 8.4087 32 10 32H26.72L32.72 37.46C33.0684 37.7872 33.5225 37.9787 34 38C34.2743 37.997 34.5456 37.9427 34.8 37.84C35.1577 37.6839 35.462 37.4265 35.6752 37.0995C35.8885 36.7725 36.0014 36.3903 36 36V12C36 10.4087 35.3679 8.88258 34.2426 7.75736C33.1174 6.63214 31.5913 6 30 6Z" fill="#18A0FB"/>
</svg>
