<svg width="40" height="40" viewBox="0 0 40 40" fill="none" xmlns="http://www.w3.org/2000/svg">
<path d="M14.82 22H19.66C19.9232 22.0015 20.1841 21.9511 20.4278 21.8515C20.6715 21.752 20.8931 21.6054 21.08 21.42L28.24 14.26C28.6125 13.8853 28.8216 13.3784 28.8216 12.85C28.8216 12.3216 28.6125 11.8147 28.24 11.44L23.4 6.64C23.0253 6.2675 22.5184 6.05841 21.99 6.05841C21.4616 6.05841 20.9547 6.2675 20.58 6.64L13.42 13.8C13.0432 14.1693 12.8275 14.6725 12.82 15.2V20C12.82 20.5304 13.0307 21.0391 13.4058 21.4142C13.7809 21.7893 14.2896 22 14.82 22ZM16.82 16L22 10.88L24 12.88L18.84 18H16.84L16.82 16ZM38 24H36V4H38C38.5304 4 39.0391 3.78929 39.4142 3.41421C39.7893 3.03914 40 2.53043 40 2C40 1.46957 39.7893 0.960859 39.4142 0.585786C39.0391 0.210714 38.5304 0 38 0H2C1.46957 0 0.960859 0.210714 0.585786 0.585786C0.210714 0.960859 0 1.46957 0 2C0 2.53043 0.210714 3.03914 0.585786 3.41421C0.960859 3.78929 1.46957 4 2 4H4V24H2C1.46957 24 0.960859 24.2107 0.585786 24.5858C0.210714 24.9609 0 25.4696 0 26C0 26.5304 0.210714 27.0391 0.585786 27.4142C0.960859 27.7893 1.46957 28 2 28H18V30.3L8.9 36.3C8.52667 36.5311 8.23976 36.8786 8.08354 37.289C7.92732 37.6993 7.91047 38.1496 8.03559 38.5705C8.16071 38.9914 8.42085 39.3594 8.77587 39.6177C9.13089 39.876 9.56105 40.0104 10 40C10.3932 40.0045 10.7779 39.8856 11.1 39.66L18 35.1V38C18 38.5304 18.2107 39.0391 18.5858 39.4142C18.9609 39.7893 19.4696 40 20 40C20.5304 40 21.0391 39.7893 21.4142 39.4142C21.7893 39.0391 22 38.5304 22 38V35.1L28.9 39.66C29.2221 39.8856 29.6068 40.0045 30 40C30.4273 39.9967 30.8423 39.8566 31.1842 39.6003C31.5261 39.344 31.7769 38.9849 31.8999 38.5757C32.0229 38.1665 32.0116 37.7286 31.8677 37.3263C31.7237 36.924 31.4547 36.5783 31.1 36.34L22 30.34V28H38C38.5304 28 39.0391 27.7893 39.4142 27.4142C39.7893 27.0391 40 26.5304 40 26C40 25.4696 39.7893 24.9609 39.4142 24.5858C39.0391 24.2107 38.5304 24 38 24ZM32 24H8V4H32V24Z" fill="#18A0FB"/>
</svg>
