<svg width="276" height="198" viewBox="0 0 276 198" fill="none" xmlns="http://www.w3.org/2000/svg">
<g filter="url(#filter0_d)">
<path d="M18 12C18 5.37258 23.3726 0 30 0H246C252.627 0 258 5.37258 258 12V148C258 154.627 252.627 160 246 160H30C23.3726 160 18 154.627 18 148V12Z" fill="white"/>
<rect x="35.5" y="49.5" width="61" height="61" rx="1.5" stroke="black" stroke-opacity="0.1"/>
<path d="M58 67.5002L62.0003 67.5M64 67.5002H68M70 67.5002H74M58 92.5002L62.0003 92.5M64 92.5002H68M70 92.5002H74M78.5 72.0002V76.0002M78.5 78.0002V82.0002M78.5 84.0002V88.0002M53.5003 72V76M53.5003 78V82M53.5003 84V88M76 67.5002H78.5V70.0002M56.0003 67.5H53.5003V70M76 92.5002H78.5V90.0002M56.0003 92.5L53.5003 92.5001V90" stroke="black" stroke-opacity="0.1"/>
<path d="M66 71V89M75 80L57 80" stroke="black" stroke-opacity="0.8"/>
<path d="M39 80H50M66 96V107M66 53V64M82 80H93" stroke="black" stroke-opacity="0.8"/>
<path fill-rule="evenodd" clip-rule="evenodd" d="M39 78L50 78V82L39 82V78Z" fill="#18A0FB"/>
<path fill-rule="evenodd" clip-rule="evenodd" d="M68 53V64H64V53H68Z" fill="#18A0FB"/>
<path d="M58.9688 140H59.9375V136.422H63.4063V135.562H59.9375V132.859H63.7656V132H58.9688V140ZM65.3548 140H66.2767V134H65.3548V140ZM65.8236 133C66.1829 133 66.4798 132.719 66.4798 132.375C66.4798 132.031 66.1829 131.75 65.8236 131.75C65.4642 131.75 65.1673 132.031 65.1673 132.375C65.1673 132.719 65.4642 133 65.8236 133ZM68.7077 134H67.6452L69.5514 137L67.6452 140H68.7077L70.1452 137.672L71.5827 140H72.6452L70.7077 137L72.6452 134H71.5827L70.1452 136.453L68.7077 134ZM77.1643 142.25H78.0862V139.078H78.1643C78.3675 139.406 78.7581 140.125 79.9143 140.125C81.4143 140.125 82.4612 138.922 82.4612 137.016C82.4612 135.125 81.4143 133.922 79.8987 133.922C78.7268 133.922 78.3675 134.641 78.1643 134.953H78.055V134H77.1643V142.25ZM78.0706 137C78.0706 135.656 78.6643 134.75 79.7893 134.75C80.9612 134.75 81.5393 135.734 81.5393 137C81.5393 138.281 80.9456 139.297 79.7893 139.297C78.68 139.297 78.0706 138.359 78.0706 137ZM86.36 140.125C87.985 140.125 89.0787 138.891 89.0787 137.031C89.0787 135.156 87.985 133.922 86.36 133.922C84.735 133.922 83.6412 135.156 83.6412 137.031C83.6412 138.891 84.735 140.125 86.36 140.125ZM86.36 139.297C85.1256 139.297 84.5631 138.234 84.5631 137.031C84.5631 135.828 85.1256 134.75 86.36 134.75C87.5943 134.75 88.1568 135.828 88.1568 137.031C88.1568 138.234 87.5943 139.297 86.36 139.297ZM94.7909 135.344C94.5019 134.492 93.8534 133.922 92.6659 133.922C91.4003 133.922 90.4628 134.641 90.4628 135.656C90.4628 136.484 90.955 137.039 92.0566 137.297L93.0566 137.531C93.662 137.672 93.9472 137.961 93.9472 138.375C93.9472 138.891 93.4003 139.312 92.5409 139.312C91.787 139.312 91.3144 138.988 91.1503 138.344L90.2753 138.562C90.4902 139.582 91.33 140.125 92.5566 140.125C93.9511 140.125 94.9003 139.363 94.9003 138.328C94.9003 137.492 94.3769 136.965 93.3066 136.703L92.4159 136.484C91.705 136.309 91.3847 136.07 91.3847 135.609C91.3847 135.094 91.9316 134.719 92.6659 134.719C93.4706 134.719 93.8027 135.164 93.9628 135.578L94.7909 135.344ZM96.343 140H97.2649V134H96.343V140ZM96.8118 133C97.1711 133 97.468 132.719 97.468 132.375C97.468 132.031 97.1711 131.75 96.8118 131.75C96.4524 131.75 96.1555 132.031 96.1555 132.375C96.1555 132.719 96.4524 133 96.8118 133ZM101.618 134H100.336V132.562H99.4146V134H98.5084V134.781H99.4146V138.531C99.4146 139.578 100.258 140.078 101.04 140.078C101.383 140.078 101.602 140.016 101.727 139.969L101.54 139.141C101.461 139.156 101.336 139.187 101.133 139.187C100.727 139.187 100.336 139.062 100.336 138.281V134.781H101.618V134ZM103.059 140H103.981V134H103.059V140ZM103.528 133C103.888 133 104.184 132.719 104.184 132.375C104.184 132.031 103.888 131.75 103.528 131.75C103.169 131.75 102.872 132.031 102.872 132.375C102.872 132.719 103.169 133 103.528 133ZM108.162 140.125C109.787 140.125 110.881 138.891 110.881 137.031C110.881 135.156 109.787 133.922 108.162 133.922C106.537 133.922 105.444 135.156 105.444 137.031C105.444 138.891 106.537 140.125 108.162 140.125ZM108.162 139.297C106.928 139.297 106.365 138.234 106.365 137.031C106.365 135.828 106.928 134.75 108.162 134.75C109.397 134.75 109.959 135.828 109.959 137.031C109.959 138.234 109.397 139.297 108.162 139.297ZM113.265 136.391C113.265 135.344 113.914 134.75 114.796 134.75C115.652 134.75 116.171 135.309 116.171 136.25V140H117.093V136.188C117.093 134.656 116.277 133.922 115.062 133.922C114.156 133.922 113.593 134.328 113.312 134.937H113.234V134H112.343V140H113.265V136.391ZM123.341 140H124.247L125.56 135.391H125.653L126.966 140H127.872L129.7 134H128.732L127.435 138.578H127.372L126.107 134H125.122L123.841 138.594H123.778L122.482 134H121.513L123.341 140ZM131.896 136.391C131.896 135.344 132.564 134.75 133.474 134.75C134.341 134.75 134.865 135.297 134.865 136.25V140H135.787V136.188C135.787 134.645 134.966 133.922 133.74 133.922C132.794 133.922 132.255 134.316 131.974 134.937H131.896V132H130.974V140H131.896V136.391ZM140.044 140.125C141.262 140.125 142.153 139.516 142.434 138.609L141.544 138.359C141.309 138.984 140.766 139.297 140.044 139.297C138.962 139.297 138.216 138.598 138.173 137.312H142.528V136.922C142.528 134.687 141.2 133.922 139.95 133.922C138.325 133.922 137.247 135.203 137.247 137.047C137.247 138.891 138.309 140.125 140.044 140.125ZM138.173 136.516C138.235 135.582 138.895 134.75 139.95 134.75C140.95 134.75 141.591 135.5 141.591 136.516H138.173ZM144.907 136.391C144.907 135.344 145.556 134.75 146.439 134.75C147.294 134.75 147.814 135.309 147.814 136.25V140H148.735V136.188C148.735 134.656 147.919 133.922 146.704 133.922C145.798 133.922 145.235 134.328 144.954 134.937H144.876V134H143.985V140H144.907V136.391ZM157.874 135.344C157.585 134.492 156.936 133.922 155.749 133.922C154.483 133.922 153.546 134.641 153.546 135.656C153.546 136.484 154.038 137.039 155.139 137.297L156.139 137.531C156.745 137.672 157.03 137.961 157.03 138.375C157.03 138.891 156.483 139.312 155.624 139.312C154.87 139.312 154.397 138.988 154.233 138.344L153.358 138.562C153.573 139.582 154.413 140.125 155.639 140.125C157.034 140.125 157.983 139.363 157.983 138.328C157.983 137.492 157.46 136.965 156.389 136.703L155.499 136.484C154.788 136.309 154.468 136.07 154.468 135.609C154.468 135.094 155.014 134.719 155.749 134.719C156.553 134.719 156.886 135.164 157.046 135.578L157.874 135.344ZM161.863 140.125C163.191 140.125 164.066 139.312 164.223 138.25H163.301C163.129 138.906 162.582 139.297 161.863 139.297C160.77 139.297 160.066 138.391 160.066 137C160.066 135.641 160.785 134.75 161.863 134.75C162.676 134.75 163.16 135.25 163.301 135.797H164.223C164.066 134.672 163.113 133.922 161.848 133.922C160.223 133.922 159.145 135.203 159.145 137.031C159.145 138.828 160.176 140.125 161.863 140.125ZM165.625 140H166.547V136.203C166.547 135.391 167.188 134.797 168.063 134.797C168.309 134.797 168.563 134.844 168.625 134.859V133.922C168.52 133.914 168.278 133.906 168.141 133.906C167.422 133.906 166.797 134.312 166.579 134.906H166.516V134H165.625V140ZM172.028 140.125C173.653 140.125 174.747 138.891 174.747 137.031C174.747 135.156 173.653 133.922 172.028 133.922C170.403 133.922 169.309 135.156 169.309 137.031C169.309 138.891 170.403 140.125 172.028 140.125ZM172.028 139.297C170.794 139.297 170.231 138.234 170.231 137.031C170.231 135.828 170.794 134.75 172.028 134.75C173.262 134.75 173.825 135.828 173.825 137.031C173.825 138.234 173.262 139.297 172.028 139.297ZM177.131 132H176.209V140H177.131V132ZM179.796 132H178.874V140H179.796V132ZM181.54 140H182.462V134H181.54V140ZM182.008 133C182.368 133 182.665 132.719 182.665 132.375C182.665 132.031 182.368 131.75 182.008 131.75C181.649 131.75 181.352 132.031 181.352 132.375C181.352 132.719 181.649 133 182.008 133ZM185.127 136.391C185.127 135.344 185.775 134.75 186.658 134.75C187.514 134.75 188.033 135.309 188.033 136.25V140H188.955V136.188C188.955 134.656 188.139 133.922 186.924 133.922C186.018 133.922 185.455 134.328 185.174 134.937H185.096V134H184.205V140H185.127V136.391ZM193.117 142.375C194.554 142.375 195.71 141.719 195.71 140.172V134H194.82V134.953H194.726C194.523 134.641 194.148 133.922 192.976 133.922C191.46 133.922 190.413 135.125 190.413 136.969C190.413 138.844 191.507 139.906 192.96 139.906C194.132 139.906 194.507 139.219 194.71 138.891H194.788V140.109C194.788 141.109 194.085 141.562 193.117 141.562C192.027 141.562 191.644 140.988 191.398 140.656L190.663 141.172C191.038 141.801 191.777 142.375 193.117 142.375ZM193.085 139.078C191.929 139.078 191.335 138.203 191.335 136.953C191.335 135.734 191.913 134.75 193.085 134.75C194.21 134.75 194.804 135.656 194.804 136.953C194.804 138.281 194.195 139.078 193.085 139.078Z" fill="black" fill-opacity="0.8"/>
<path fill-rule="evenodd" clip-rule="evenodd" d="M46 131H38C37.4477 131 37 131.448 37 132V140C37 140.552 37.4477 141 38 141H46C46.5523 141 47 140.552 47 140V132C47 131.448 46.5523 131 46 131ZM38 130C36.8954 130 36 130.895 36 132V140C36 141.105 36.8954 142 38 142H46C47.1046 142 48 141.105 48 140V132C48 130.895 47.1046 130 46 130H38Z" fill="black" fill-opacity="0.8"/>
<rect width="224" height="32" transform="translate(26 8)" fill="white"/>
<path d="M41.6367 22.6992C41.3906 20.9219 40.0234 19.8906 38.25 19.8906C36.1602 19.8906 34.5859 21.4141 34.5859 24C34.5859 26.582 36.1406 28.1094 38.25 28.1094C40.1523 28.1094 41.4141 26.8789 41.6367 25.3516L40.1758 25.3437C39.9922 26.2812 39.2266 26.8086 38.2695 26.8086C36.9727 26.8086 36.043 25.8359 36.043 24C36.043 22.1953 36.9648 21.1914 38.2734 21.1914C39.2461 21.1914 40.0078 21.7422 40.1758 22.6992H41.6367ZM45.5736 28.1172C47.3314 28.1172 48.4486 26.8789 48.4486 25.0234C48.4486 23.1641 47.3314 21.9219 45.5736 21.9219C43.8157 21.9219 42.6986 23.1641 42.6986 25.0234C42.6986 26.8789 43.8157 28.1172 45.5736 28.1172ZM45.5814 26.9844C44.6087 26.9844 44.1321 26.1172 44.1321 25.0195C44.1321 23.9219 44.6087 23.043 45.5814 23.043C46.5384 23.043 47.015 23.9219 47.015 25.0195C47.015 26.1172 46.5384 26.9844 45.5814 26.9844ZM51.1178 24.4844C51.1178 23.6172 51.6412 23.1172 52.3873 23.1172C53.1178 23.1172 53.5553 23.5977 53.5553 24.3984V28H54.9694V24.1797C54.9733 22.7422 54.153 21.9219 52.9147 21.9219C52.0162 21.9219 51.3991 22.3516 51.1256 23.0195H51.0553V22H49.7037V28H51.1178V24.4844ZM61.2041 23.5859C61.0088 22.5703 60.1963 21.9219 58.79 21.9219C57.3447 21.9219 56.3603 22.6328 56.3642 23.7422C56.3603 24.6172 56.8994 25.1953 58.0517 25.4336L59.0752 25.6484C59.6259 25.7695 59.8838 25.9922 59.8838 26.332C59.8838 26.7422 59.4384 27.0508 58.7666 27.0508C58.1181 27.0508 57.6963 26.7695 57.5752 26.2305L56.1963 26.3633C56.372 27.4648 57.2978 28.1172 58.7705 28.1172C60.2705 28.1172 61.3291 27.3398 61.333 26.2031C61.3291 25.3477 60.7783 24.8242 59.6455 24.5781L58.622 24.3594C58.0127 24.2227 57.7705 24.0117 57.7744 23.6641C57.7705 23.2578 58.2197 22.9766 58.8095 22.9766C59.4619 22.9766 59.8056 23.332 59.915 23.7266L61.2041 23.5859ZM65.5501 22H64.3665V20.5625H62.9524V22H62.1009V23.0937H62.9524V26.4297C62.9446 27.5586 63.7649 28.1133 64.8274 28.082C65.2298 28.0703 65.5071 27.9922 65.6595 27.9414L65.4212 26.8359C65.343 26.8555 65.1829 26.8906 65.0071 26.8906C64.6516 26.8906 64.3665 26.7656 64.3665 26.1953V23.0937H65.5501V22ZM66.7877 28H68.2018V24.4727C68.2018 23.7109 68.776 23.1719 69.5533 23.1719C69.7916 23.1719 70.0885 23.2148 70.2096 23.2539V21.9531C70.0807 21.9297 69.858 21.9141 69.7018 21.9141C69.0143 21.9141 68.44 22.3047 68.2213 23H68.1588V22H66.7877V28ZM72.8124 28.1211C73.7538 28.1211 74.3163 27.6797 74.5741 27.1758H74.621V28H75.9804V23.9844C75.9804 22.3984 74.6874 21.9219 73.5429 21.9219C72.2812 21.9219 71.3124 22.4844 70.9999 23.5781L72.3202 23.7656C72.4609 23.3555 72.8593 23.0039 73.5507 23.0039C74.207 23.0039 74.5663 23.3398 74.5663 23.9297V23.9531C74.5663 24.3594 74.1405 24.3789 73.082 24.4922C71.9179 24.6172 70.8046 24.9648 70.8046 26.3164C70.8046 27.4961 71.6679 28.1211 72.8124 28.1211ZM73.1796 27.082C72.5898 27.082 72.1679 26.8125 72.1679 26.293C72.1679 25.75 72.6405 25.5234 73.2734 25.4336C73.6445 25.3828 74.3866 25.2891 74.5702 25.1406V25.8477C74.5702 26.5156 74.0312 27.082 73.1796 27.082ZM77.4573 28H78.8713V22H77.4573V28ZM78.1682 21.1484C78.6174 21.1484 78.9846 20.8047 78.9846 20.3828C78.9846 19.957 78.6174 19.6133 78.1682 19.6133C77.7151 19.6133 77.3479 19.957 77.3479 20.3828C77.3479 20.8047 77.7151 21.1484 78.1682 21.1484ZM81.7945 24.4844C81.7945 23.6172 82.3179 23.1172 83.064 23.1172C83.7945 23.1172 84.232 23.5977 84.232 24.3984V28H85.6461V24.1797C85.65 22.7422 84.8296 21.9219 83.5914 21.9219C82.6929 21.9219 82.0757 22.3516 81.8023 23.0195H81.732V22H80.3804V28H81.7945V24.4844ZM90.1346 22H88.9511V20.5625H87.537V22H86.6854V23.0937H87.537V26.4297C87.5292 27.5586 88.3495 28.1133 89.412 28.082C89.8143 28.0703 90.0917 27.9922 90.244 27.9414L90.0057 26.8359C89.9276 26.8555 89.7675 26.8906 89.5917 26.8906C89.2362 26.8906 88.9511 26.7656 88.9511 26.1953V23.0937H90.1346V22ZM96.0285 23.5859C95.8332 22.5703 95.0207 21.9219 93.6145 21.9219C92.1691 21.9219 91.1848 22.6328 91.1887 23.7422C91.1848 24.6172 91.7238 25.1953 92.8762 25.4336L93.8996 25.6484C94.4504 25.7695 94.7082 25.9922 94.7082 26.332C94.7082 26.7422 94.2629 27.0508 93.591 27.0508C92.9426 27.0508 92.5207 26.7695 92.3996 26.2305L91.0207 26.3633C91.1965 27.4648 92.1223 28.1172 93.5949 28.1172C95.0949 28.1172 96.1535 27.3398 96.1574 26.2031C96.1535 25.3477 95.6027 24.8242 94.4699 24.5781L93.4465 24.3594C92.8371 24.2227 92.5949 24.0117 92.5988 23.6641C92.5949 23.2578 93.0441 22.9766 93.634 22.9766C94.2863 22.9766 94.6301 23.332 94.7395 23.7266L96.0285 23.5859Z" fill="black" fill-opacity="0.8"/>
<path fill-rule="evenodd" clip-rule="evenodd" d="M118.207 64.5L119.854 66.1465L119.146 66.8536L116.646 64.3536L116.293 64L116.646 63.6465L119.146 61.1465L119.854 61.8536L118.207 63.5H125.793L124.146 61.8536L124.854 61.1465L127.354 63.6465L127.707 64L127.354 64.3536L124.854 66.8536L124.146 66.1465L125.793 64.5H118.207Z" fill="black" fill-opacity="0.3"/>
<path d="M138.969 68H143.656V67.1406H139.938V60H138.969V68ZM147.602 68.125C148.821 68.125 149.711 67.5156 149.993 66.6094L149.102 66.3594C148.868 66.9844 148.325 67.2969 147.602 67.2969C146.52 67.2969 145.774 66.5977 145.731 65.3125H150.086V64.9219C150.086 62.6875 148.758 61.9219 147.508 61.9219C145.883 61.9219 144.805 63.2031 144.805 65.0469C144.805 66.8906 145.867 68.125 147.602 68.125ZM145.731 64.5156C145.793 63.582 146.453 62.75 147.508 62.75C148.508 62.75 149.149 63.5 149.149 64.5156H145.731ZM154.215 62H152.872V61.3906C152.872 60.7969 153.122 60.4844 153.731 60.4844C153.997 60.4844 154.153 60.5469 154.247 60.5781L154.512 59.7812C154.372 59.7187 154.09 59.625 153.637 59.625C152.778 59.625 151.95 60.1406 151.95 61.1719V62H150.981V62.7812H151.95V68H152.872V62.7812H154.215V62ZM158.172 62H156.891V60.5625H155.969V62H155.062V62.7812H155.969V66.5312C155.969 67.5781 156.812 68.0781 157.594 68.0781C157.937 68.0781 158.156 68.0156 158.281 67.9687L158.094 67.1406C158.016 67.1562 157.891 67.1875 157.687 67.1875C157.281 67.1875 156.891 67.0625 156.891 66.2812V62.7812H158.172V62Z" fill="black" fill-opacity="0.8"/>
<path fill-rule="evenodd" clip-rule="evenodd" d="M166.646 66.3536L163.646 63.3536L164.354 62.6465L167 65.2929L169.646 62.6465L170.354 63.3536L167.354 66.3536L167 66.7071L166.646 66.3536Z" fill="black" fill-opacity="0.3"/>
<path fill-rule="evenodd" clip-rule="evenodd" d="M122 90.292L122.354 90.6455L124.854 93.1455L124.147 93.8527L122.5 92.2062L122.5 99.792L124.147 98.1455L124.854 98.8527L122.354 101.353L122 101.706L121.647 101.353L119.147 98.8527L119.854 98.1455L121.5 99.792L121.5 92.2062L119.854 93.8527L119.147 93.1455L121.647 90.6455L122 90.292Z" fill="black" fill-opacity="0.3"/>
<path d="M138.531 92.8594H141.047V100H142.016V92.8594H144.531V92H138.531V92.8594ZM147.524 100.125C149.149 100.125 150.243 98.8906 150.243 97.0312C150.243 95.1562 149.149 93.9219 147.524 93.9219C145.899 93.9219 144.805 95.1562 144.805 97.0312C144.805 98.8906 145.899 100.125 147.524 100.125ZM147.524 99.2969C146.289 99.2969 145.727 98.2344 145.727 97.0312C145.727 95.8281 146.289 94.75 147.524 94.75C148.758 94.75 149.321 95.8281 149.321 97.0312C149.321 98.2344 148.758 99.2969 147.524 99.2969ZM151.705 102.25H152.627V99.0781H152.705C152.908 99.4062 153.298 100.125 154.455 100.125C155.955 100.125 157.002 98.9219 157.002 97.0156C157.002 95.125 155.955 93.9219 154.439 93.9219C153.267 93.9219 152.908 94.6406 152.705 94.9531H152.595V94H151.705V102.25ZM152.611 97C152.611 95.6562 153.205 94.75 154.33 94.75C155.502 94.75 156.08 95.7344 156.08 97C156.08 98.2812 155.486 99.2969 154.33 99.2969C153.22 99.2969 152.611 98.3594 152.611 97Z" fill="black" fill-opacity="0.8"/>
<path fill-rule="evenodd" clip-rule="evenodd" d="M165.646 98.3536L162.646 95.3536L163.354 94.6465L166 97.2929L168.646 94.6465L169.354 95.3536L166.354 98.3536L166 98.7071L165.646 98.3536Z" fill="black" fill-opacity="0.3"/>
</g>
<defs>
<filter id="filter0_d" x="0.16732" y="0" width="275.665" height="197.833" filterUnits="userSpaceOnUse" color-interpolation-filters="sRGB">
<feFlood flood-opacity="0" result="BackgroundImageFix"/>
<feColorMatrix in="SourceAlpha" type="matrix" values="0 0 0 0 0 0 0 0 0 0 0 0 0 0 0 0 0 0 127 0" result="hardAlpha"/>
<feMorphology radius="18.4773" operator="erode" in="SourceAlpha" result="effect1_dropShadow"/>
<feOffset dy="20"/>
<feGaussianBlur stdDeviation="18.155"/>
<feColorMatrix type="matrix" values="0 0 0 0 0.508333 0 0 0 0 0.508333 0 0 0 0 0.508333 0 0 0 0.25 0"/>
<feBlend mode="normal" in2="BackgroundImageFix" result="effect1_dropShadow"/>
<feBlend mode="normal" in="SourceGraphic" in2="effect1_dropShadow" result="shape"/>
</filter>
</defs>
</svg>
