<svg width="30" height="43" viewBox="0 0 30 43" fill="none" xmlns="http://www.w3.org/2000/svg">
<path d="M0 0H30V42.3077L15 33.1072L0 42.3077V0Z" fill="#013301"/>
<path d="M9.98612 23.2307C13.0543 23.2307 14.9129 21.3328 14.9129 18.1859C14.9129 15.0489 13.0543 13.1608 10.0156 13.1608H6.41641V23.2307H9.98612ZM8.54546 21.4065V14.985H9.90254C11.7906 14.985 12.7888 15.9487 12.7888 18.1859C12.7888 20.433 11.7906 21.4065 9.89762 21.4065H8.54546ZM18.5453 18.8645C18.5502 17.8909 19.1304 17.3205 19.9762 17.3205C20.817 17.3205 21.3234 17.8712 21.3185 18.7956V23.2307H23.4131V18.4219C23.4131 16.6617 22.3805 15.5799 20.8071 15.5799C19.6861 15.5799 18.8748 16.1306 18.5355 17.0108H18.447V15.6783H16.4507V23.2307H18.5453V18.8645Z" fill="#33FF66"/>
</svg>
