<svg width="16" height="17" viewBox="0 0 16 17" fill="none" xmlns="http://www.w3.org/2000/svg">
<path d="M8 0.307617C3.584 0.307617 0 3.89162 0 8.30762C0 12.7236 3.584 16.3076 8 16.3076C12.4 16.3076 16 12.7236 16 8.30762C16 3.89162 12.4 0.307617 8 0.307617ZM13.28 3.98762C14.24 5.15562 14.8 6.62762 14.832 8.24362C14.608 8.19562 12.352 7.74762 10.08 8.01962C10.032 7.90762 9.984 7.77962 9.936 7.66762C9.792 7.33162 9.648 6.99562 9.488 6.67562C11.984 5.66762 13.136 4.17962 13.28 3.98762ZM8 1.49162C9.728 1.49162 11.328 2.14762 12.528 3.20362C12.4 3.37962 11.376 4.75562 8.944 5.66762C7.824 3.60362 6.576 1.92362 6.4 1.66762C6.912 1.55562 7.44 1.49162 8 1.49162ZM5.088 2.13162C5.264 2.37162 6.48 4.06762 7.616 6.08362C4.416 6.93162 1.6 6.91562 1.296 6.91562C1.76 4.78762 3.184 3.02762 5.088 2.13162ZM1.168 8.32362C1.168 8.25962 1.168 8.17962 1.168 8.11562C1.456 8.13162 4.784 8.16362 8.192 7.13962C8.384 7.52362 8.576 7.90762 8.752 8.30762C8.672 8.33962 8.576 8.35562 8.48 8.38762C4.96 9.52362 3.088 12.6276 2.928 12.8836C1.824 11.6676 1.168 10.0676 1.168 8.32362ZM8 15.1396C6.416 15.1396 4.96 14.5956 3.808 13.6996C3.936 13.4436 5.312 10.7716 9.168 9.42762C9.184 9.41162 9.2 9.41162 9.216 9.41162C10.176 11.9076 10.576 13.9876 10.672 14.5956C9.856 14.9476 8.944 15.1396 8 15.1396ZM11.808 13.9716C11.744 13.5556 11.376 11.5556 10.48 9.10762C12.624 8.77162 14.496 9.33162 14.736 9.39562C14.432 11.2996 13.344 12.9476 11.808 13.9716Z" fill="#EA4C89"/>
</svg>
