<svg width="36" height="38" viewBox="0 0 36 38" fill="none" xmlns="http://www.w3.org/2000/svg">
<path d="M25.5402 5.74C25.9994 6.00074 26.5431 6.06928 27.0527 5.93064C27.5623 5.79201 27.9963 5.45746 28.2602 5C28.4785 4.61471 28.8185 4.31278 29.2269 4.14156C29.6353 3.97033 30.089 3.9395 30.5168 4.05389C30.9447 4.16828 31.3224 4.42142 31.5909 4.77362C31.8593 5.12583 32.0033 5.55716 32.0002 6C32.0002 6.53043 31.7895 7.03914 31.4144 7.41421C31.0393 7.78928 30.5306 8 30.0002 8C29.4698 8 28.961 8.21071 28.586 8.58579C28.2109 8.96086 28.0002 9.46957 28.0002 10C28.0002 10.5304 28.2109 11.0391 28.586 11.4142C28.961 11.7893 29.4698 12 30.0002 12C31.0532 11.9993 32.0876 11.7215 32.9993 11.1945C33.9109 10.6674 34.6678 9.90973 35.1939 8.9975C35.72 8.08527 35.9968 7.05065 35.9963 5.9976C35.9959 4.94454 35.7183 3.91014 35.1915 2.99833C34.6647 2.08653 33.9072 1.32944 32.9951 0.803126C32.083 0.276817 31.0484 -0.000168588 29.9954 7.6983e-08C28.9423 0.000168742 27.9079 0.277486 26.9959 0.804087C26.084 1.33069 25.3267 2.08802 24.8002 3C24.6679 3.22827 24.5822 3.48044 24.5478 3.742C24.5134 4.00355 24.5312 4.26933 24.5999 4.52401C24.6687 4.77869 24.7872 5.01724 24.9486 5.22594C25.11 5.43463 25.311 5.60934 25.5402 5.74ZM34.1402 20C33.6152 19.9319 33.0846 20.0746 32.6647 20.3971C32.2448 20.7195 31.9699 21.1952 31.9002 21.72C31.4805 25.1103 29.8356 28.2302 27.2754 30.492C24.7152 32.7538 21.4164 34.0015 18.0002 34H6.82019L8.12019 32.7C8.49269 32.3253 8.70177 31.8184 8.70177 31.29C8.70177 30.7616 8.49269 30.2547 8.12019 29.88C6.17009 27.9222 4.84296 25.4311 4.30597 22.7205C3.76899 20.0099 4.04616 17.201 5.10259 14.6477C6.15901 12.0943 7.94743 9.91064 10.2426 8.37178C12.5377 6.83292 15.2369 6.00768 18.0002 6C18.5306 6 19.0393 5.78928 19.4144 5.41421C19.7895 5.03914 20.0002 4.53043 20.0002 4C20.0002 3.46957 19.7895 2.96086 19.4144 2.58579C19.0393 2.21071 18.5306 2 18.0002 2C14.6187 2.0141 11.3095 2.98047 8.45178 4.78839C5.59408 6.5963 3.30345 9.17264 1.84232 12.2222C0.381179 15.2718 -0.191365 18.6714 0.190279 22.0313C0.571922 25.3913 1.89232 28.5758 4.00019 31.22L0.580187 34.58C0.302672 34.8612 0.11468 35.2184 0.0399314 35.6064C-0.0348168 35.9944 0.00702849 36.3958 0.160187 36.76C0.310228 37.1252 0.565023 37.4379 0.892464 37.6586C1.2199 37.8792 1.60534 37.998 2.00019 38H18.0002C22.3831 38.0006 26.6156 36.402 29.9038 33.5041C33.192 30.6063 35.3099 26.6082 35.8602 22.26C35.8968 21.9985 35.8812 21.7324 35.8144 21.4769C35.7476 21.2215 35.6309 20.9818 35.471 20.7717C35.3111 20.5616 35.1112 20.3852 34.8827 20.2528C34.6543 20.1203 34.402 20.0344 34.1402 20V20ZM30.7602 14.14C30.3961 13.9789 29.9922 13.9302 29.6002 14L29.2402 14.12L28.8802 14.3L28.5802 14.56C28.4003 14.7443 28.2577 14.9616 28.1602 15.2C28.0419 15.4495 27.987 15.7242 28.0002 16C27.9944 16.2667 28.042 16.5319 28.1402 16.78C28.2436 17.02 28.3931 17.2375 28.5802 17.42C28.7671 17.6054 28.9887 17.752 29.2324 17.8515C29.476 17.9511 29.737 18.0015 30.0002 18C30.5306 18 31.0393 17.7893 31.4144 17.4142C31.7895 17.0391 32.0002 16.5304 32.0002 16C32.0069 15.7376 31.9521 15.4774 31.8402 15.24C31.6253 14.7594 31.2408 14.3749 30.7602 14.16V14.14Z" fill="#18A0FB"/>
</svg>
