<svg width="40" height="40" viewBox="0 0 40 40" fill="none" xmlns="http://www.w3.org/2000/svg">
<path d="M16.58 19.42C16.7659 19.6075 16.9871 19.7562 17.2308 19.8578C17.4746 19.9593 17.736 20.0116 18 20.0116C18.264 20.0116 18.5254 19.9593 18.7692 19.8578C19.0129 19.7562 19.2341 19.6075 19.42 19.42L27.42 11.42C27.6065 11.2335 27.7544 11.0121 27.8553 10.7685C27.9562 10.5249 28.0082 10.2637 28.0082 10C28.0082 9.73628 27.9562 9.47515 27.8553 9.2315C27.7544 8.98786 27.6065 8.76648 27.42 8.58C27.2335 8.39352 27.0121 8.2456 26.7685 8.14468C26.5249 8.04376 26.2637 7.99182 26 7.99182C25.7363 7.99182 25.4751 8.04376 25.2315 8.14468C24.9879 8.2456 24.7665 8.39352 24.58 8.58L18 15.18L15.42 12.58C15.0434 12.2034 14.5326 11.9918 14 11.9918C13.4674 11.9918 12.9566 12.2034 12.58 12.58C12.2034 12.9566 11.9918 13.4674 11.9918 14C11.9918 14.5326 12.2034 15.0434 12.58 15.42L16.58 19.42ZM38 24H36V4H38C38.5304 4 39.0391 3.78929 39.4142 3.41421C39.7893 3.03914 40 2.53043 40 2C40 1.46957 39.7893 0.960859 39.4142 0.585786C39.0391 0.210714 38.5304 0 38 0H2C1.46957 0 0.960859 0.210714 0.585786 0.585786C0.210714 0.960859 0 1.46957 0 2C0 2.53043 0.210714 3.03914 0.585786 3.41421C0.960859 3.78929 1.46957 4 2 4H4V24H2C1.46957 24 0.960859 24.2107 0.585786 24.5858C0.210714 24.9609 0 25.4696 0 26C0 26.5304 0.210714 27.0391 0.585786 27.4142C0.960859 27.7893 1.46957 28 2 28H18V30.3L8.9 36.3C8.52667 36.5311 8.23976 36.8786 8.08354 37.289C7.92732 37.6993 7.91047 38.1496 8.03559 38.5705C8.16071 38.9914 8.42085 39.3594 8.77587 39.6177C9.13089 39.8761 9.56105 40.0104 10 40C10.3932 40.0045 10.7779 39.8856 11.1 39.66L18 35.1V38C18 38.5304 18.2107 39.0391 18.5858 39.4142C18.9609 39.7893 19.4696 40 20 40C20.5304 40 21.0391 39.7893 21.4142 39.4142C21.7893 39.0391 22 38.5304 22 38V35.1L28.9 39.66C29.2221 39.8856 29.6068 40.0045 30 40C30.4273 39.9967 30.8423 39.8566 31.1842 39.6003C31.5261 39.344 31.7769 38.9849 31.8999 38.5757C32.0229 38.1665 32.0116 37.7286 31.8677 37.3263C31.7237 36.924 31.4547 36.5783 31.1 36.34L22 30.34V28H38C38.5304 28 39.0391 27.7893 39.4142 27.4142C39.7893 27.0391 40 26.5304 40 26C40 25.4696 39.7893 24.9609 39.4142 24.5858C39.0391 24.2107 38.5304 24 38 24ZM32 24H8V4H32V24Z" fill="#18A0FB"/>
</svg>
