<svg width="40" height="40" viewBox="0 0 40 40" fill="none" xmlns="http://www.w3.org/2000/svg">
<path d="M34 0H6C4.4087 0 2.88258 0.632141 1.75736 1.75736C0.632141 2.88258 0 4.4087 0 6V26C0 27.5913 0.632141 29.1174 1.75736 30.2426C2.88258 31.3679 4.4087 32 6 32H29.18L36.58 39.42C36.7669 39.6054 36.9885 39.752 37.2322 39.8515C37.4759 39.9511 37.7368 40.0015 38 40C38.2624 40.0068 38.5226 39.952 38.76 39.84C39.1252 39.69 39.4379 39.4352 39.6586 39.1077C39.8792 38.7803 39.998 38.3948 40 38V6C40 4.4087 39.3679 2.88258 38.2426 1.75736C37.1174 0.632141 35.5913 0 34 0ZM7.54 28H6C5.46957 28 4.96086 27.7893 4.58579 27.4142C4.21071 27.0391 4 26.5304 4 26V25.16L10.6 18.58C10.9747 18.2075 11.4816 17.9984 12.01 17.9984C12.5384 17.9984 13.0453 18.2075 13.42 18.58L15.16 20.32L7.54 28ZM36 33.18L31.42 28.58C31.2331 28.3946 31.0115 28.248 30.7678 28.1485C30.5241 28.0489 30.2632 27.9985 30 28H13.18L26.6 14.58C26.9739 14.2135 27.4765 14.0083 28 14.0083C28.5235 14.0083 29.0261 14.2135 29.4 14.58L36 21.16V33.18ZM36 15.52L32.24 11.78C31.115 10.6564 29.59 10.0253 28 10.0253C26.41 10.0253 24.885 10.6564 23.76 11.78L18 17.52L16.24 15.78C15.1001 14.6849 13.5807 14.0733 12 14.0733C10.4193 14.0733 8.89988 14.6849 7.76 15.78L4 19.52V6C4 5.46957 4.21071 4.96086 4.58579 4.58579C4.96086 4.21071 5.46957 4 6 4H34C34.5304 4 35.0391 4.21071 35.4142 4.58579C35.7893 4.96086 36 5.46957 36 6V15.52Z" fill="#18A0FB"/>
</svg>
