<svg width="176" height="185" viewBox="0 0 176 185" fill="none" xmlns="http://www.w3.org/2000/svg">
<path fill-rule="evenodd" clip-rule="evenodd" d="M0 0H176V134.153C176 137.889 173.918 141.313 170.6 143.032L94.1185 182.659C91.2797 184.13 87.9087 184.155 85.0486 182.726L5.53059 142.997C2.14125 141.304 0 137.84 0 134.052V0Z" fill="#933EFF"/>
<path d="M131.051 57.2627C133.77 57.2627 135.986 59.4782 135.986 62.1972V112.348C135.986 115.067 133.77 117.283 131.051 117.283H44.9486C42.2296 117.283 40.0141 115.067 40.0141 112.348V62.1972C40.0141 59.4782 42.2296 57.2627 44.9486 57.2627H87.4461" stroke="white" stroke-width="3"/>
<path d="M64.0826 69.75H49.1783V80.8275H64.0826V69.75Z" stroke="white" stroke-width="3"/>
<path d="M121.787 42.6602C116.55 41.6532 112.22 39.5384 109.501 36.8193C106.781 39.5384 102.35 41.6532 97.2145 42.6602C93.9919 43.2645 90.7694 43.2645 88.0504 42.8616V60.5857C88.0504 74.1809 97.1138 80.1225 109.501 83.7478C121.887 80.1225 130.951 74.1809 130.951 60.5857V42.8616C128.232 43.2645 125.11 43.2645 121.787 42.6602Z" stroke="white" stroke-width="3"/>
<path d="M120.578 59.6791C120.578 65.8221 115.644 70.7567 109.501 70.7567C103.358 70.7567 98.423 65.8221 98.423 59.6791C98.423 53.5361 103.358 48.6016 109.501 48.6016C115.644 48.6016 120.578 53.5361 120.578 59.6791Z" stroke="white" stroke-width="3"/>
<path d="M114.234 55.4502L108.493 62.6002L104.767 60.1833" stroke="white" stroke-width="3"/>
<path d="M62.3802 92V94.6H65.1802V106H68.4202V92H62.3802ZM76.8523 106.24C80.3123 106.24 82.8523 103.62 82.8523 99C82.8523 94.38 80.3123 91.76 76.8523 91.76C73.4123 91.76 70.8523 94.38 70.8523 99C70.8523 103.62 73.4123 106.24 76.8523 106.24ZM76.8523 103.5C75.2523 103.5 74.1323 102.18 74.1323 99C74.1323 95.82 75.2523 94.5 76.8523 94.5C78.4723 94.5 79.5923 95.82 79.5923 99C79.5923 102.18 78.4723 103.5 76.8523 103.5ZM90.4265 106.24C93.8865 106.24 96.4265 103.62 96.4265 99C96.4265 94.38 93.8865 91.76 90.4265 91.76C86.9865 91.76 84.4265 94.38 84.4265 99C84.4265 103.62 86.9865 106.24 90.4265 106.24ZM90.4265 103.5C88.8265 103.5 87.7065 102.18 87.7065 99C87.7065 95.82 88.8265 94.5 90.4265 94.5C92.0465 94.5 93.1665 95.82 93.1665 99C93.1665 102.18 92.0465 103.5 90.4265 103.5ZM101.241 99.56C103.281 99.56 104.701 98.08 104.701 95.7C104.701 93.32 103.281 91.84 101.241 91.84C99.2007 91.84 97.7607 93.34 97.7607 95.7C97.7607 98.06 99.2007 99.56 101.241 99.56ZM100.021 106H102.401L111.961 92H109.581L100.021 106ZM101.241 97.92C100.381 97.92 99.7807 97.18 99.7807 95.7C99.7807 94.22 100.381 93.48 101.241 93.48C102.121 93.48 102.701 94.2 102.701 95.7C102.701 97.2 102.121 97.92 101.241 97.92ZM110.741 106.16C112.781 106.16 114.221 104.66 114.221 102.3C114.221 99.94 112.781 98.44 110.741 98.44C108.721 98.44 107.281 99.94 107.281 102.3C107.281 104.66 108.721 106.16 110.741 106.16ZM110.741 104.52C109.881 104.52 109.281 103.8 109.281 102.3C109.281 100.8 109.881 100.08 110.741 100.08C111.621 100.08 112.201 100.82 112.201 102.3C112.201 103.78 111.621 104.52 110.741 104.52Z" fill="white"/>
</svg>
