<svg width="24" height="24" viewBox="0 0 24 24" fill="none" xmlns="http://www.w3.org/2000/svg">
<path d="M11.8088 2.31916C14.9619 2.31916 15.3353 2.3312 16.5807 2.38801C17.732 2.44056 18.3572 2.63289 18.7734 2.79461C19.2863 2.98391 19.7503 3.28576 20.1312 3.67797C20.5234 4.05887 20.8252 4.52284 21.0145 5.03575C21.1763 5.45186 21.3686 6.07712 21.4211 7.22847C21.4779 8.4737 21.49 8.84715 21.49 12.0003C21.49 15.1535 21.4779 15.5269 21.4211 16.7722C21.3686 17.9236 21.1762 18.5488 21.0145 18.9649C20.8181 19.4742 20.5172 19.9367 20.1312 20.3227C19.7452 20.7087 19.2827 21.0096 18.7734 21.2061C18.3573 21.3678 17.732 21.5602 16.5807 21.6127C15.3357 21.6695 14.9622 21.6815 11.8088 21.6815C8.65538 21.6815 8.28206 21.6695 7.03692 21.6127C5.88558 21.5601 5.26036 21.3677 4.8442 21.2061C4.33129 21.0168 3.86733 20.7149 3.48642 20.3227C3.09422 19.9418 2.79237 19.4778 2.60306 18.9649C2.44134 18.5488 2.24897 17.9236 2.19647 16.7722C2.13966 15.527 2.12761 15.1535 2.12761 12.0003C2.12761 8.84715 2.13966 8.47379 2.19647 7.22847C2.24902 6.07712 2.44134 5.4519 2.60306 5.03575C2.79239 4.52281 3.09427 4.05883 3.48652 3.67792C3.86742 3.28572 4.33139 2.98387 4.8443 2.79456C5.26041 2.63284 5.88567 2.44047 7.03702 2.38797C8.28225 2.33116 8.6557 2.31911 11.8089 2.31911L11.8088 2.31916ZM11.8089 0.191406C8.6018 0.191406 8.19952 0.205 6.94017 0.262469C5.68322 0.319844 4.82484 0.519437 4.07372 0.811375C3.28578 1.10789 2.572 1.57271 1.98216 2.17342C1.38131 2.76323 0.916358 3.47701 0.619734 4.26498C0.328031 5.01615 0.128438 5.87453 0.0712969 7.13148C0.0135937 8.39082 0 8.7931 0 12.0002C0 15.2073 0.0135937 15.6096 0.0712969 16.8689C0.128672 18.1259 0.328266 18.9842 0.620203 19.7354C0.916718 20.5233 1.38154 21.2371 1.98225 21.8269C2.57209 22.4276 3.28587 22.8925 4.07381 23.189C4.82498 23.4809 5.68336 23.6805 6.94027 23.7379C8.1998 23.7953 8.60194 23.8089 11.809 23.8089C15.016 23.8089 15.4184 23.7953 16.6777 23.7379C17.9347 23.6805 18.793 23.4809 19.5442 23.189C20.3286 22.8856 21.041 22.4217 21.6357 21.8269C22.2305 21.2322 22.6944 20.5198 22.9978 19.7354C23.2897 18.9842 23.4893 18.1258 23.5467 16.8689C23.6041 15.6094 23.6177 15.2072 23.6177 12.0002C23.6177 8.79315 23.6041 8.39082 23.5467 7.13148C23.4893 5.87453 23.2897 5.01615 22.9978 4.26503C22.7013 3.47709 22.2364 2.76331 21.6357 2.17347C21.0459 1.57264 20.332 1.10772 19.544 0.81114C18.7928 0.519437 17.9345 0.319844 16.6775 0.262703C15.4182 0.205 15.0159 0.191406 11.8088 0.191406H11.8089Z" fill="#83919F"/>
<path d="M11.8091 5.9375C10.6098 5.9375 9.43735 6.29315 8.44014 6.95946C7.44292 7.62578 6.66568 8.57285 6.20671 9.68089C5.74774 10.7889 5.62766 12.0082 5.86164 13.1845C6.09562 14.3608 6.67316 15.4413 7.52122 16.2894C8.36928 17.1374 9.44978 17.715 10.6261 17.9489C11.8024 18.1829 13.0216 18.0628 14.1297 17.6039C15.2377 17.1449 16.1848 16.3677 16.8511 15.3704C17.5174 14.3732 17.8731 13.2008 17.8731 12.0015C17.8731 10.3932 17.2342 8.85081 16.097 7.7136C14.9598 6.57638 13.4174 5.9375 11.8091 5.9375V5.9375ZM11.8091 15.9377C11.0306 15.9377 10.2696 15.7068 9.62226 15.2743C8.97496 14.8418 8.47045 14.227 8.17253 13.5078C7.87461 12.7885 7.79667 11.9971 7.94856 11.2335C8.10044 10.47 8.47534 9.76861 9.02583 9.21813C9.57632 8.66764 10.2777 8.29275 11.0412 8.14088C11.8048 7.989 12.5962 8.06695 13.3155 8.36488C14.0347 8.66281 14.6495 9.16732 15.082 9.81463C15.5145 10.4619 15.7454 11.223 15.7454 12.0015C15.7454 13.0454 15.3307 14.0466 14.5925 14.7848C13.8543 15.523 12.8531 15.9377 11.8091 15.9377Z" fill="#83919F"/>
<path d="M18.1126 7.11336C18.8952 7.11336 19.5296 6.47893 19.5296 5.69633C19.5296 4.91372 18.8952 4.2793 18.1126 4.2793C17.33 4.2793 16.6956 4.91372 16.6956 5.69633C16.6956 6.47893 17.33 7.11336 18.1126 7.11336Z" fill="#83919F"/>
</svg>
