<svg width="101" height="63" viewBox="0 0 101 63" fill="none" xmlns="http://www.w3.org/2000/svg">
<path d="M90.6359 37.6604L89.8575 35.5117L88.8075 37.5416L84.4494 45.9673L76.0238 50.3254L73.9939 51.3753L76.1425 52.1538L96.8622 59.6609L98.8708 60.3886L98.1431 58.3801L90.6359 37.6604Z" fill="#FFD028" stroke="#212429" stroke-width="2"/>
<g opacity="0.15" filter="url(#filter0_f)">
<rect width="56.7341" height="29.574" rx="6.35158" transform="matrix(-1 0 0 1 71.8829 14.9717)" fill="#212429"/>
</g>
<rect x="1" y="-1" width="65.0356" height="32.1898" transform="matrix(-1 0 0 1 77.0354 8.32031)" fill="#FFD028" stroke="#212429" stroke-width="2"/>
<path d="M26.202 30.1622H28.2916V17.1021H26.202V30.1622Z" fill="#212429"/>
<path d="M30.718 30.1622H32.6583V24.7516C32.6583 23.315 33.7964 22.2329 35.2703 22.2329C35.5688 22.2329 35.8673 22.2702 36.1099 22.3821V20.2179H35.8487C34.0203 20.2179 33.0874 21.2254 32.6583 21.8784V20.4604H30.718V30.1622Z" fill="#212429"/>
<path d="M37.6051 30.1622H39.5454V20.4604H37.6051V30.1622ZM37.3066 18.1096C37.3066 18.8372 37.8476 19.397 38.5753 19.397C39.3029 19.397 39.8626 18.8372 39.8626 18.1096C39.8626 17.382 39.3029 16.8223 38.5753 16.8223C37.8476 16.8223 37.3066 17.382 37.3066 18.1096Z" fill="#212429"/>
<path d="M43.7907 30.1622V24.6023C43.7907 23.1657 44.9288 22.0649 46.4027 22.0649C47.8393 22.0649 48.9028 23.1471 48.9028 24.5837V30.1622H50.8431V24.024C50.8431 21.8411 49.2013 20.2179 46.9811 20.2179C45.1713 20.2179 44.2198 21.2067 43.7907 21.8597V20.4604H41.8503V30.1622H43.7907Z" fill="#212429"/>
<path d="M52.7176 25.3113C52.7176 28.2218 54.7699 30.4047 57.4938 30.4047C58.7439 30.4047 59.882 29.9383 60.7215 29.136V30.1622H62.6619V20.4604H60.7215V21.4866C59.882 20.6843 58.7439 20.2179 57.4938 20.2179C54.7699 20.2179 52.7176 22.4008 52.7176 25.3113ZM57.6991 22.1582C59.3782 22.1582 60.6842 23.5202 60.6842 25.3113C60.6842 27.1024 59.3782 28.4644 57.6991 28.4644C56.0386 28.4644 54.7326 27.1024 54.7326 25.3113C54.7326 23.5202 56.0386 22.1582 57.6991 22.1582Z" fill="#212429"/>
<defs>
<filter id="filter0_f" x="0.713412" y="0.536273" width="85.6049" height="58.4448" filterUnits="userSpaceOnUse" color-interpolation-filters="sRGB">
<feFlood flood-opacity="0" result="BackgroundImageFix"/>
<feBlend mode="normal" in="SourceGraphic" in2="BackgroundImageFix" result="shape"/>
<feGaussianBlur stdDeviation="7.2177" result="effect1_foregroundBlur"/>
</filter>
</defs>
</svg>
