<svg width="244" height="32" viewBox="0 0 244 32" fill="none" xmlns="http://www.w3.org/2000/svg">
<g clip-path="url(#clip0)">
<path d="M21.5121 30.2747C12.4311 30.2747 4.10199 25.0542 0.0638278 16.9032C-0.0925385 16.5864 0.0547064 16.2012 0.377863 16.0631L7.25277 13.1301C7.53292 13.0104 7.86129 13.1143 8.01505 13.3786C10.5912 17.8458 16.4849 21.3823 21.5134 21.3823C26.4936 21.3823 32.1645 17.8695 34.7511 13.2747C34.9048 13.0026 35.2397 12.8948 35.5251 13.017L42.6528 16.0552C42.976 16.1933 43.1232 16.5785 42.9668 16.8953C38.9261 25.0502 30.597 30.2747 21.5121 30.2747Z" fill="#83919F"/>
<path d="M138.542 13.6481C142.069 13.6481 144.176 16.0171 144.176 19.9861C144.176 23.9551 142.071 26.3242 138.542 26.3242C137.438 26.3242 135.872 26.0849 134.672 24.9451C133.519 23.8486 132.909 22.1343 132.909 19.9861C132.907 16.1959 135.172 13.6481 138.542 13.6481ZM138.542 8.47485C132.173 8.47485 127.01 13.1446 127.01 19.9861C127.01 27.1472 132.173 31.4974 138.542 31.4974C144.911 31.4974 150.074 27.0946 150.074 19.9861C150.074 12.8738 144.91 8.47485 138.542 8.47485Z" fill="#83919F"/>
<path d="M70.3386 8.78772C70.0337 8.78772 69.7626 8.98492 69.6688 9.27809L64.2729 24.8425L58.6372 9.28335C58.5434 8.98886 58.2724 8.78903 57.9661 8.78903H52.5897C52.3474 8.78903 52.178 9.02962 52.2562 9.25969L60.2712 30.794C60.369 31.0819 60.6374 31.2752 60.9384 31.2752H67.7559C68.0609 31.2752 68.3319 31.0767 68.4257 30.7848L75.1729 11.024V30.9202C75.1729 31.1161 75.3306 31.2765 75.526 31.2765H81.1891C81.3833 31.2765 81.5422 31.1174 81.5422 30.9202V9.144C81.5422 8.94811 81.3846 8.78772 81.1891 8.78772H70.3386Z" fill="#83919F"/>
<path d="M220.536 31.1266H214.428C214.356 31.1266 214.297 31.0675 214.297 30.9952V0.631467C214.297 0.55916 214.356 0.5 214.428 0.5H220.536C220.608 0.5 220.667 0.55916 220.667 0.631467V30.9952C220.667 31.0688 220.609 31.1266 220.536 31.1266Z" fill="#83919F"/>
<path d="M78.0906 6.8959C79.9977 6.8959 81.5437 5.48856 81.5437 3.75252C81.5437 2.01647 79.9977 0.609131 78.0906 0.609131C76.1835 0.609131 74.6375 2.01647 74.6375 3.75252C74.6375 5.48856 76.1835 6.8959 78.0906 6.8959Z" fill="#83919F"/>
<path d="M212.101 31.2739H205.992C205.92 31.2739 205.862 31.2147 205.862 31.1424V8.98755C205.862 8.91524 205.92 8.85608 205.992 8.85608H212.101C212.172 8.85608 212.231 8.91524 212.231 8.98755V31.1424C212.231 31.2147 212.172 31.2739 212.101 31.2739Z" fill="#83919F"/>
<path d="M208.778 6.8959C210.685 6.8959 212.231 5.48856 212.231 3.75252C212.231 2.01647 210.685 0.609131 208.778 0.609131C206.871 0.609131 205.325 2.01647 205.325 3.75252C205.325 5.48856 206.871 6.8959 208.778 6.8959Z" fill="#83919F"/>
<path d="M116.421 26.5253C114.051 26.5253 111.419 24.6059 111.154 22.0988L127.153 22.1632C127.153 22.1632 127.179 21.2508 127.132 19.9887C126.992 16.2025 125.493 8.47614 116.269 8.47614C110.069 8.47614 105.361 13.1459 105.361 19.9874C105.361 27.1484 110.228 31.4987 116.428 31.4987C122.084 31.4987 125.054 28.634 126.627 26.3557C126.753 26.173 126.687 25.9219 126.486 25.8285L122.523 23.9682C122.383 23.9025 122.216 23.9367 122.113 24.0524C121.038 25.2566 119.915 26.5253 116.421 26.5253ZM116.421 13.5205C119.044 13.5205 121.161 15.2914 121.512 17.6762H111.114C111.61 15.1376 113.798 13.5205 116.421 13.5205Z" fill="#83919F"/>
<path d="M232.861 26.4017C230.507 26.4017 227.893 24.339 227.63 21.8477L243.52 21.9108C243.52 21.9108 243.546 21.1614 243.499 19.9085C243.359 16.1473 241.871 8.47614 232.709 8.47614C226.552 8.47614 221.876 13.1143 221.876 19.9072C221.876 27.0196 226.71 31.3383 232.866 31.3383C238.482 31.3383 241.429 28.496 242.993 26.2334C243.119 26.0507 243.053 25.7996 242.852 25.7062L238.921 23.8618C238.78 23.796 238.614 23.8302 238.511 23.9459C237.445 25.1423 236.329 26.4017 232.861 26.4017ZM233.018 13.4864C235.987 13.4864 237.725 15.4045 238.074 17.7722H227.591C228.084 15.2506 229.993 13.4864 233.018 13.4864Z" fill="#83919F"/>
<path d="M149.21 28.0371L151.76 24.5309C151.864 24.3876 152.056 24.3481 152.21 24.4349C154.882 25.9442 157.781 26.5068 160.472 26.5594C162.57 26.6002 164.089 25.8627 163.936 24.7307C163.809 23.796 162.169 23.1847 158.515 22.4051C152.511 21.1062 150.814 18.1126 150.781 15.3571C150.735 11.4854 154.322 8.49318 160.623 8.46294C164.518 8.44453 167.669 9.91828 169.957 11.3118C170.134 11.4196 170.179 11.6602 170.055 11.8285L167.502 15.3032C167.394 15.4504 167.197 15.4872 167.042 15.3939C164.996 14.1463 161.942 13.0577 159.788 13.247C158.116 13.3943 156.751 14.1949 156.917 15.3032C157.14 16.7901 158.868 17.053 162.239 17.9299C168.967 19.6797 170.038 21.8003 170.069 24.4283C170.11 27.8163 167.97 31.3987 159.603 31.5013C156.005 31.5447 152.081 30.2931 149.302 28.5525C149.13 28.442 149.089 28.2041 149.21 28.0371Z" fill="#83919F"/>
<path d="M196.842 8.98885C192.921 8.29339 189.636 10.5257 188.399 12.7856C187.356 10.9109 186.051 9.21103 183.562 8.98885C180.706 8.7338 178.628 10.0629 177.393 11.584L176.749 8.7785H172.222C172.028 8.7785 171.869 8.93758 171.869 9.13478V30.9202C171.869 31.1174 172.027 31.2765 172.222 31.2765L177.716 31.2726C177.91 31.2726 178.068 31.1135 178.068 30.9163V19.6863C178.068 14.7248 180.938 13.8124 182.493 14.1227C184.047 14.4329 184.95 15.1336 184.95 19.4852L184.876 30.9176C184.875 31.1148 185.032 31.2752 185.229 31.2752H190.681C190.875 31.2752 191.034 31.1161 191.034 30.9189V19.685C191.034 13.6086 194.966 13.4601 196.403 14.1213C197.84 14.7826 197.917 15.9264 197.917 20.278V30.9189C197.917 31.1148 198.075 31.2752 198.27 31.2752H203.322C203.516 31.2752 203.675 31.1161 203.675 30.9189V19.4721C203.673 11.2093 199.954 9.5397 196.842 8.98885Z" fill="#83919F"/>
<path d="M98.1185 1.00484V10.2693C98.1185 10.2693 96.5457 8.48138 92.6783 8.48138C87.4765 8.48138 83.0474 13.5705 83.0474 19.8428C83.0474 26.6291 85.7942 31.4974 92.3642 31.4974C95.0003 31.4974 96.6096 30.5534 98.1589 29.0902L98.8156 30.8282C98.9199 31.1043 99.1818 31.2857 99.475 31.2857H103.823C104.017 31.2857 104.176 31.1266 104.176 30.9294V1.00484C104.176 0.80895 104.019 0.64856 103.823 0.64856H98.4716C98.2775 0.64856 98.1185 0.807635 98.1185 1.00484ZM93.2777 26.3886C90.3601 26.3886 88.429 24.0682 88.429 20.4344C88.429 16.8006 90.2116 13.8637 93.2777 13.8637C97.2337 13.8637 98.1029 16.9505 98.1029 20.5843C98.1029 24.218 96.1652 26.3886 93.2777 26.3886Z" fill="#83919F"/>
</g>
<defs>
<clipPath id="clip0">
<rect width="243.526" height="31" fill="white" transform="translate(0 0.5)"/>
</clipPath>
</defs>
</svg>
