<svg width="72" height="108" viewBox="0 0 72 108" fill="none" xmlns="http://www.w3.org/2000/svg">
<g clip-path="url(#clip0)">
<path d="M18.0035 108C27.9375 108 35.9999 99.936 35.9999 90V72H18.0035C8.06949 72 0.00710297 80.064 0.00710297 90C0.00710297 99.936 8.06949 108 18.0035 108Z" fill="#0ACF83"/>
<path d="M0.00710297 54C0.00710297 44.064 8.06949 36 18.0035 36H35.9999V72H18.0035C8.06949 72 0.00710297 63.936 0.00710297 54Z" fill="#A259FF"/>
<path d="M0.00723648 18C0.00723648 8.064 8.06962 0 18.0036 0H36V36H18.0036C8.06962 36 0.00723648 27.936 0.00723648 18Z" fill="#F24E1E"/>
<path d="M35.9999 0H53.9963C63.9303 0 71.9927 8.064 71.9927 18C71.9927 27.936 63.9303 36 53.9963 36H35.9999V0Z" fill="#FF7262"/>
<path d="M71.9927 54C71.9927 63.936 63.9303 72 53.9963 72C44.0623 72 35.9999 63.936 35.9999 54C35.9999 44.064 44.0623 36 53.9963 36C63.9303 36 71.9927 44.064 71.9927 54Z" fill="#1ABCFE"/>
</g>
<defs>
<clipPath id="clip0">
<rect width="72" height="108" fill="white" transform="translate(-0.00012207)"/>
</clipPath>
</defs>
</svg>
