<svg width="147" height="104" viewBox="0 0 147 104" fill="none" xmlns="http://www.w3.org/2000/svg">
<path d="M65.5648 46.8484L63.6184 46.1432L65.4572 45.1921L71.8667 41.8768L75.182 35.4673L76.1331 33.6285L76.8383 35.5749L82.5845 51.4343L83.2437 53.2538L81.4242 52.5946L65.5648 46.8484Z" fill="#212429" stroke="#212429" stroke-width="1.8117"/>
<rect x="0.574409" y="-0.574409" width="56.1488" height="28.1488" transform="matrix(-1 0 0 1 58.1488 2)" fill="#FF4545" stroke="#212429" stroke-width="1.14882"/>
<path d="M14 9.24725V20.7857H15.8763V12.7747L19.7127 19.4176H20.9524L24.772 12.7747V20.7857H26.6651V9.24725H24.772L20.3326 16.9451L15.8763 9.24725H14Z" fill="#212429"/>
<path d="M28.8363 20.7857H30.5786V12.2143H28.8363V20.7857ZM28.5683 10.1374C28.5683 10.7802 29.0541 11.2747 29.7074 11.2747C30.3608 11.2747 30.8634 10.7802 30.8634 10.1374C30.8634 9.49451 30.3608 9 29.7074 9C29.0541 9 28.5683 9.49451 28.5683 10.1374Z" fill="#212429"/>
<path d="M32.6482 20.7857H34.3905V16.0055C34.3905 14.7363 35.4124 13.7802 36.7359 13.7802C37.0039 13.7802 37.272 13.8132 37.4898 13.9121V12H37.2552C35.6135 12 34.7758 12.8901 34.3905 13.467V12.2143H32.6482V20.7857Z" fill="#212429"/>
<path d="M38.0708 16.5C38.0708 19.0714 39.9136 21 42.3595 21C43.4819 21 44.5038 20.5879 45.2577 19.8791V20.7857H47V12.2143H45.2577V13.1209C44.5038 12.4121 43.4819 12 42.3595 12C39.9136 12 38.0708 13.9286 38.0708 16.5ZM42.5438 13.7143C44.0515 13.7143 45.2242 14.9176 45.2242 16.5C45.2242 18.0824 44.0515 19.2857 42.5438 19.2857C41.0528 19.2857 39.8801 18.0824 39.8801 16.5C39.8801 14.9176 41.0528 13.7143 42.5438 13.7143Z" fill="#212429"/>
<path d="M44.8715 100.149L142.605 26.2182" stroke="#3D7FFF" stroke-opacity="0.85" stroke-width="1.8117"/>
<circle cx="93.7392" cy="62.7307" r="5.68018" fill="white"/>
<circle cx="93.7392" cy="62.7307" r="4.77433" stroke="#3D7FFF" stroke-opacity="0.85" stroke-width="1.8117"/>
<circle cx="44.8721" cy="100.149" r="3.76822" fill="white"/>
<circle cx="44.8721" cy="100.149" r="2.86237" stroke="#3D7FFF" stroke-opacity="0.85" stroke-width="1.8117"/>
<circle cx="142.605" cy="26.2182" r="3.76822" fill="white"/>
<circle cx="142.605" cy="26.2182" r="2.86237" stroke="#3D7FFF" stroke-opacity="0.85" stroke-width="1.8117"/>
</svg>
