<svg width="30" height="43" viewBox="0 0 30 43" fill="none" xmlns="http://www.w3.org/2000/svg">
<path d="M0 0H30V42.3077L15 33.1072L0 42.3077V0Z" fill="#BC9F6B"/>
<path d="M4.98686 13.1608V23.2307H7.05198V16.6518H7.13557L9.74156 23.1815H11.1478L13.7538 16.6764H13.8374V23.2307H15.9025V13.1608H13.2769L10.5037 19.9265H10.3857L7.61252 13.1608H4.98686ZM21.0297 23.3782C23.321 23.3782 24.7469 21.8097 24.7469 19.484C24.7469 17.1435 23.321 15.5799 21.0297 15.5799C18.7384 15.5799 17.3124 17.1435 17.3124 19.484C17.3124 21.8097 18.7384 23.3782 21.0297 23.3782ZM21.0395 21.7556C19.9824 21.7556 19.4415 20.787 19.4415 19.4692C19.4415 18.1515 19.9824 17.1779 21.0395 17.1779C22.077 17.1779 22.6178 18.1515 22.6178 19.4692C22.6178 20.787 22.077 21.7556 21.0395 21.7556Z" fill="white"/>
</svg>
