<svg width="103" height="62" viewBox="0 0 103 62" fill="none" xmlns="http://www.w3.org/2000/svg">
<path d="M90.9061 32.6913L90.2009 30.745L89.2499 32.5838L83.8653 42.9939L73.4552 48.3784L71.6165 49.3295L73.5628 50.0347L98.9408 59.2296L100.76 59.8888L100.101 58.0694L90.9061 32.6913Z" fill="#DDFB24" stroke="#212429" stroke-width="1.8117"/>
<g opacity="0.15" filter="url(#filter0_f)">
<rect x="13.9069" y="13.833" width="59.9643" height="27.2817" rx="4.98216" fill="#6A001A"/>
<rect x="13.001" y="12.9272" width="61.776" height="29.0934" rx="5.88801" stroke="#212429" stroke-width="1.8117"/>
</g>
<rect x="10.0942" y="6.79142" width="67.9219" height="29.6614" fill="#DDFB24" stroke="#212429" stroke-width="1.8117"/>
<path d="M22.1533 27.8458H24.0809V23.4054H27.4887C29.795 23.4054 31.5333 21.7703 31.5333 19.6017C31.5333 17.4331 29.795 15.7981 27.4887 15.7981H22.1533V27.8458ZM27.4887 17.588C28.6418 17.588 29.5196 18.4486 29.5196 19.6017C29.5196 20.7549 28.6418 21.6154 27.4887 21.6154H24.0809V17.588H27.4887Z" fill="#212429"/>
<path d="M32.2766 23.3709C32.2766 26.0559 34.1698 28.0696 36.6827 28.0696C37.8358 28.0696 38.8857 27.6393 39.6602 26.8992V27.8458H41.4501V18.8961H39.6602V19.8427C38.8857 19.1026 37.8358 18.6723 36.6827 18.6723C34.1698 18.6723 32.2766 20.686 32.2766 23.3709ZM36.872 20.4623C38.421 20.4623 39.6258 21.7187 39.6258 23.3709C39.6258 25.0232 38.421 26.2796 36.872 26.2796C35.3402 26.2796 34.1354 25.0232 34.1354 23.3709C34.1354 21.7187 35.3402 20.4623 36.872 20.4623Z" fill="#212429"/>
<path d="M46.4894 27.8458H48.1588L51.9281 18.8961H50.0865L47.3155 25.574L44.5617 18.8961H42.7201L46.4894 27.8458Z" fill="#212429"/>
<path d="M52.4795 23.3709C52.4795 26.0559 54.5448 28.0696 57.2814 28.0696C59.0886 28.0696 60.6031 27.1918 61.4121 25.8149L59.6565 25.2814C59.123 25.9698 58.2624 26.4001 57.2814 26.4001C55.7668 26.4001 54.5965 25.4019 54.3211 24.025H61.7563C61.7735 23.8012 61.7907 23.5775 61.7907 23.3537C61.7907 20.686 59.777 18.6723 57.1437 18.6723C54.4932 18.6723 52.4795 20.686 52.4795 23.3709ZM54.3383 22.5964C54.6653 21.2712 55.7668 20.3418 57.0921 20.3418C58.5034 20.3418 59.6221 21.2712 59.9491 22.5964H54.3383Z" fill="#212429"/>
<path d="M63.3802 27.8458H65.1701V14.9375H63.3802V27.8458Z" fill="#212429"/>
<defs>
<filter id="filter0_f" x="0.772056" y="0.698386" width="86.2338" height="53.5513" filterUnits="userSpaceOnUse" color-interpolation-filters="sRGB">
<feFlood flood-opacity="0" result="BackgroundImageFix"/>
<feBlend mode="normal" in="SourceGraphic" in2="BackgroundImageFix" result="shape"/>
<feGaussianBlur stdDeviation="5.66155" result="effect1_foregroundBlur"/>
</filter>
</defs>
</svg>
