<svg width="30" height="43" viewBox="0 0 30 43" fill="none" xmlns="http://www.w3.org/2000/svg">
<path d="M0 0H30V42.3077L15 33.1072L0 42.3077V0Z" fill="#001E36"/>
<path d="M7.38997 23.2307H9.51901V19.9659H11.3088C13.6247 19.9659 14.9719 18.5842 14.9719 16.5732C14.9719 14.5719 13.6493 13.1608 11.3629 13.1608H7.38997V23.2307ZM9.51901 18.2597V14.9014H10.9548C12.184 14.9014 12.779 15.5701 12.779 16.5732C12.779 17.5713 12.184 18.2597 10.9646 18.2597H9.51901ZM22.5994 17.8319C22.4125 16.4404 21.2914 15.5799 19.3837 15.5799C17.4513 15.5799 16.1778 16.4748 16.1827 17.9302C16.1778 19.0611 16.8908 19.7938 18.3658 20.0888L19.6738 20.3494C20.3326 20.4821 20.6326 20.7231 20.6424 21.1017C20.6326 21.5491 20.1458 21.8687 19.4132 21.8687C18.6658 21.8687 18.1692 21.5491 18.0413 20.9345L15.9811 21.0427C16.1778 22.4883 17.407 23.3782 19.4082 23.3782C21.3652 23.3782 22.7665 22.3801 22.7714 20.8902C22.7665 19.7987 22.0536 19.1447 20.5883 18.8448L19.2214 18.5694C18.5183 18.417 18.2577 18.1761 18.2626 17.8122C18.2577 17.3599 18.769 17.0648 19.4181 17.0648C20.1458 17.0648 20.5785 17.4631 20.6817 17.9499L22.5994 17.8319Z" fill="#31A8FF"/>
</svg>
