<svg width="276" height="126" viewBox="0 0 276 126" fill="none" xmlns="http://www.w3.org/2000/svg">
<g filter="url(#filter0_d)">
<path d="M18 12C18 5.37258 23.3726 0 30 0H246C252.627 0 258 5.37258 258 12V76C258 82.6274 252.627 88 246 88H30C23.3726 88 18 82.6274 18 76V12Z" fill="white"/>
<rect width="192" height="32" transform="translate(26 8)" fill="white"/>
<path d="M58.5313 20.8594H61.0469V28H62.0156V20.8594H64.5312V20H58.5313V20.8594ZM67.6019 28.125C68.8206 28.125 69.7112 27.5156 69.9925 26.6094L69.1019 26.3594C68.8675 26.9844 68.3245 27.2969 67.6019 27.2969C66.5198 27.2969 65.7737 26.5977 65.7308 25.3125H70.0862V24.9219C70.0862 22.6875 68.7581 21.9219 67.5081 21.9219C65.8831 21.9219 64.805 23.2031 64.805 25.0469C64.805 26.8906 65.8675 28.125 67.6019 28.125ZM65.7308 24.5156C65.7933 23.582 66.4534 22.75 67.5081 22.75C68.5081 22.75 69.1488 23.5 69.1488 24.5156H65.7308ZM72.07 22H71.0075L72.9137 25L71.0075 28H72.07L73.5075 25.6719L74.945 28H76.0075L74.07 25L76.0075 22H74.945L73.5075 24.4531L72.07 22ZM79.9873 22H78.706V20.5625H77.7841V22H76.8779V22.7812H77.7841V26.5312C77.7841 27.5781 78.6279 28.0781 79.4091 28.0781C79.7529 28.0781 79.9716 28.0156 80.0966 27.9687L79.9091 27.1406C79.831 27.1562 79.706 27.1875 79.5029 27.1875C79.0966 27.1875 78.706 27.0625 78.706 26.2812V22.7812H79.9873V22ZM88.8277 23.3437C88.5387 22.4922 87.8902 21.9219 86.7027 21.9219C85.4371 21.9219 84.4996 22.6406 84.4996 23.6562C84.4996 24.4844 84.9918 25.0391 86.0934 25.2969L87.0934 25.5312C87.6988 25.6719 87.984 25.9609 87.984 26.375C87.984 26.8906 87.4371 27.3125 86.5777 27.3125C85.8238 27.3125 85.3512 26.9883 85.1871 26.3437L84.3121 26.5625C84.527 27.582 85.3668 28.125 86.5934 28.125C87.9879 28.125 88.9371 27.3633 88.9371 26.3281C88.9371 25.4922 88.4137 24.9648 87.3434 24.7031L86.4527 24.4844C85.7418 24.3086 85.4215 24.0703 85.4215 23.6094C85.4215 23.0937 85.9684 22.7187 86.7027 22.7187C87.5074 22.7187 87.8395 23.1641 87.9996 23.5781L88.8277 23.3437ZM92.9892 22H91.7079V20.5625H90.7861V22H89.8798V22.7812H90.7861V26.5312C90.7861 27.5781 91.6298 28.0781 92.4111 28.0781C92.7548 28.0781 92.9736 28.0156 93.0986 27.9687L92.9111 27.1406C92.8329 27.1562 92.7079 27.1875 92.5048 27.1875C92.0986 27.1875 91.7079 27.0625 91.7079 26.2812V22.7812H92.9892V22ZM95.0246 30.25C95.8567 30.25 96.4426 29.8086 96.7903 28.875L99.345 22.0156L98.3371 22L96.6809 26.7812H96.6184L94.9621 22H93.9621L96.1809 28.0313L96.009 28.5C95.6731 29.4141 95.259 29.5 94.5871 29.3281L94.3528 30.1406C94.4465 30.1875 94.7121 30.25 95.0246 30.25ZM101.542 20H100.62V28H101.542V20ZM105.801 28.125C107.019 28.125 107.91 27.5156 108.191 26.6094L107.301 26.3594C107.066 26.9844 106.523 27.2969 105.801 27.2969C104.719 27.2969 103.973 26.5977 103.93 25.3125H108.285V24.9219C108.285 22.6875 106.957 21.9219 105.707 21.9219C104.082 21.9219 103.004 23.2031 103.004 25.0469C103.004 26.8906 104.066 28.125 105.801 28.125ZM103.93 24.5156C103.992 23.582 104.652 22.75 105.707 22.75C106.707 22.75 107.348 23.5 107.348 24.5156H103.93Z" fill="black" fill-opacity="0.8"/>
<path d="M36.13 28L36.7777 26.0099H39.9268L40.5746 28H42.5518L39.5433 19.2727H37.1655L34.1527 28H36.13ZM37.2464 24.5696L38.3203 21.267H38.3885L39.4624 24.5696H37.2464ZM46.2124 30.5909C48.0831 30.5909 49.4126 29.7386 49.4126 28.0639V21.4545H47.6101V22.554H47.5419C47.299 22.0213 46.7663 21.3693 45.6712 21.3693C44.2351 21.3693 43.0206 22.4858 43.0206 24.7145C43.0206 26.892 44.201 27.9062 45.6754 27.9062C46.7195 27.9062 47.3033 27.3821 47.5419 26.8409H47.6186V28.0384C47.6186 28.9375 47.0433 29.2869 46.255 29.2869C45.4538 29.2869 45.049 28.9375 44.8999 28.5412L43.2209 28.767C43.4382 29.7983 44.4482 30.5909 46.2124 30.5909ZM46.2507 26.5426C45.3601 26.5426 44.8743 25.8352 44.8743 24.706C44.8743 23.5938 45.3516 22.8139 46.2507 22.8139C47.1328 22.8139 47.6271 23.5597 47.6271 24.706C47.6271 25.8608 47.1243 26.5426 46.2507 26.5426Z" fill="black" fill-opacity="0.8"/>
<path d="M30 46C30 44.8954 30.8954 44 32 44H52C53.1046 44 54 44.8954 54 46V66C54 67.1046 53.1046 68 52 68H32C30.8954 68 30 67.1046 30 66V46Z" fill="black" fill-opacity="0.1"/>
<path fill-rule="evenodd" clip-rule="evenodd" d="M83 51H97V52H83V51ZM89 55H97V56H89V55ZM97 59H87V60H97V59Z" fill="black" fill-opacity="0.8"/>
<path fill-rule="evenodd" clip-rule="evenodd" d="M59 51H73V52H59V51ZM62 55H70V56H62V55ZM71 59H61V60H71V59Z" fill="black" fill-opacity="0.8"/>
<path fill-rule="evenodd" clip-rule="evenodd" d="M35 51H49V52H35V51ZM35 55H43V56H35V55ZM45 59H35V60H45V59Z" fill="black"/>
<path d="M126 46C126 44.8954 126.895 44 128 44H148C149.105 44 150 44.8954 150 46V66C150 67.1046 149.105 68 148 68H128C126.895 68 126 67.1046 126 66V46Z" fill="black" fill-opacity="0.1"/>
<path fill-rule="evenodd" clip-rule="evenodd" d="M186.354 60.3536L186 60.7071L185.646 60.3536L182.646 57.3536L183.354 56.6464L185.5 58.7929V51H186.5V58.7929L188.646 56.6464L189.354 57.3536L186.354 60.3536ZM193 62V63H179V62H193Z" fill="black" fill-opacity="0.8"/>
<path fill-rule="evenodd" clip-rule="evenodd" d="M162 54.2071L162.354 53.8536L164.354 51.8536L163.646 51.1464L162.5 52.2929V48H161.5V52.2929L160.354 51.1464L159.646 51.8536L161.646 53.8536L162 54.2071ZM162 57.7929L162.354 58.1464L164.354 60.1464L163.646 60.8536L162.5 59.7071V64H161.5V59.7071L160.354 60.8536L159.646 60.1464L161.646 58.1464L162 57.7929ZM155 56.5H169V55.5H155V56.5Z" fill="black" fill-opacity="0.8"/>
<path fill-rule="evenodd" clip-rule="evenodd" d="M145 49H131V50H145V49ZM138.354 51.6464L138 51.2929L137.646 51.6464L134.646 54.6464L135.354 55.3536L137.5 53.2071V61H138.5V53.2071L140.646 55.3536L141.354 54.6464L138.354 51.6464Z" fill="black"/>
<path fill-rule="evenodd" clip-rule="evenodd" d="M229.5 56C229.5 56.8284 228.828 57.5 228 57.5C227.172 57.5 226.5 56.8284 226.5 56C226.5 55.1716 227.172 54.5 228 54.5C228.828 54.5 229.5 55.1716 229.5 56ZM235.5 56C235.5 56.8284 234.828 57.5 234 57.5C233.172 57.5 232.5 56.8284 232.5 56C232.5 55.1716 233.172 54.5 234 54.5C234.828 54.5 235.5 55.1716 235.5 56ZM240 57.5C240.828 57.5 241.5 56.8284 241.5 56C241.5 55.1716 240.828 54.5 240 54.5C239.172 54.5 238.5 55.1716 238.5 56C238.5 56.8284 239.172 57.5 240 57.5Z" fill="black" fill-opacity="0.8"/>
<path fill-rule="evenodd" clip-rule="evenodd" d="M231 17V20H232V17H231ZM240.103 17.8964C238.942 16.7347 237.058 16.7347 235.896 17.8965L233.146 20.6464L233.853 21.3535L236.603 18.6036C237.375 17.8323 238.625 17.8323 239.396 18.6036C240.167 19.3748 240.167 20.6252 239.396 21.3964L236.646 24.1464L237.353 24.8535L240.103 22.1035C241.265 20.9418 241.265 19.0582 240.103 17.8964ZM227.896 30.1035C226.735 28.9418 226.735 27.0582 227.896 25.8964L230.646 23.1464L231.353 23.8535L228.603 26.6035C227.832 27.3748 227.832 28.6252 228.603 29.3964C229.375 30.1677 230.625 30.1677 231.396 29.3964L234.146 26.6464L234.853 27.3535L232.103 30.1035C230.942 31.2653 229.058 31.2653 227.896 30.1035ZM241 27H238V26H241V27ZM237 28V31H236V28H237ZM230 21H227V22H230V21Z" fill="black" fill-opacity="0.8"/>
</g>
<defs>
<filter id="filter0_d" x="0.16732" y="0" width="275.665" height="125.833" filterUnits="userSpaceOnUse" color-interpolation-filters="sRGB">
<feFlood flood-opacity="0" result="BackgroundImageFix"/>
<feColorMatrix in="SourceAlpha" type="matrix" values="0 0 0 0 0 0 0 0 0 0 0 0 0 0 0 0 0 0 127 0" result="hardAlpha"/>
<feMorphology radius="18.4773" operator="erode" in="SourceAlpha" result="effect1_dropShadow"/>
<feOffset dy="20"/>
<feGaussianBlur stdDeviation="18.155"/>
<feColorMatrix type="matrix" values="0 0 0 0 0.508333 0 0 0 0 0.508333 0 0 0 0 0.508333 0 0 0 0.25 0"/>
<feBlend mode="normal" in2="BackgroundImageFix" result="effect1_dropShadow"/>
<feBlend mode="normal" in="SourceGraphic" in2="effect1_dropShadow" result="shape"/>
</filter>
</defs>
</svg>
