<svg width="24" height="14" viewBox="0 0 24 14" fill="none" xmlns="http://www.w3.org/2000/svg">
<path d="M20.7111 9.71961C18.8711 8.03961 19.1111 8.27961 21.3511 5.31961C22.7111 3.47961 23.2711 2.43961 23.1111 1.95961C22.9511 1.47961 21.9111 1.63961 21.9111 1.63961H18.5511C18.5511 1.63961 18.3111 1.63961 18.1511 1.71961C17.9911 1.79961 17.8311 2.03961 17.8311 2.03961C17.8311 2.03961 17.2711 3.47961 16.5511 4.59961C15.0311 7.15961 14.4711 7.23961 14.2311 7.07961C13.6711 6.67961 13.8311 5.63961 13.8311 4.83961C13.8311 2.43961 14.2311 1.15961 13.1111 0.919609C12.7911 0.839609 12.4711 0.599609 11.6711 0.599609H10.5511C9.7511 0.599609 9.1111 0.839609 8.7111 1.07961C8.3111 1.23961 7.99111 1.79961 8.23111 1.79961C8.47111 1.79961 8.95111 1.95961 9.19111 2.35961C9.51111 2.83961 9.5111 3.87961 9.5111 3.87961C9.5111 3.87961 9.67111 6.75961 9.03111 7.07961C8.55111 7.31961 7.99111 6.83961 6.63111 4.51961C5.91111 3.31961 5.43111 2.03961 5.43111 2.03961C5.43111 2.03961 5.35111 1.79961 5.19111 1.63961C4.95111 1.47961 4.7111 1.39961 4.7111 1.39961H1.5111C1.5111 1.39961 1.0311 1.39961 0.871099 1.63961C0.711099 1.79961 0.871099 2.19961 0.871099 2.19961C0.871099 2.19961 3.35111 7.95961 6.23111 10.9196C8.87111 13.6396 11.7511 13.3196 11.7511 13.3196H13.1111C13.1111 13.3196 13.5111 13.3196 13.7511 13.1596C13.9111 12.9196 13.9111 12.6796 13.9111 12.6796C13.9111 12.6796 13.9111 10.9196 14.7111 10.5996C15.5111 10.3596 16.6311 12.2796 17.6711 13.0796C18.5511 13.6396 19.1911 13.5596 19.1911 13.5596L22.1511 13.4796C22.1511 13.4796 23.7511 13.3996 22.9511 12.1996C22.8711 12.1996 22.4711 11.3996 20.7111 9.71961Z" fill="#83919F"/>
</svg>
