<svg width="30" height="43" viewBox="0 0 30 43" fill="none" xmlns="http://www.w3.org/2000/svg">
<path d="M0 0H30V42.3077L15 33.1072L0 42.3077V0Z" fill="#470137"/>
<path d="M8.33277 13.1608H5.91854L9.01131 18.1957L5.85954 23.2307H8.29835L10.3635 19.7938H10.4421L12.5073 23.2307H14.9559L11.814 18.1957L14.8871 13.1608H12.4827L10.4421 16.5928H10.3635L8.33277 13.1608ZM18.5859 23.3536C19.8053 23.3536 20.4395 22.6505 20.7297 22.0211H20.8182V23.2307H22.8833V13.1608H20.7936V16.9468H20.7297C20.4494 16.3322 19.8446 15.5799 18.5809 15.5799C16.9239 15.5799 15.5226 16.8682 15.5226 19.4643C15.5226 21.9916 16.8649 23.3536 18.5859 23.3536ZM19.2496 21.6868C18.222 21.6868 17.6615 20.7722 17.6615 19.4545C17.6615 18.1466 18.2122 17.2468 19.2496 17.2468C20.2675 17.2468 20.8378 18.1072 20.8378 19.4545C20.8378 20.8017 20.2576 21.6868 19.2496 21.6868Z" fill="#FF61F6"/>
</svg>
