<svg width="22" height="16" viewBox="0 0 22 16" fill="none" xmlns="http://www.w3.org/2000/svg">
<path d="M21.275 3.725C21.275 3.725 21.05 2.225 20.45 1.625C19.625 0.8 18.725 0.8 18.35 0.725C15.425 0.5 11 0.5 11 0.5C11 0.5 6.575 0.5 3.65 0.725C3.275 0.8 2.375 0.8 1.55 1.625C0.95 2.3 0.725 3.725 0.725 3.725C0.725 3.725 0.5 5.45 0.5 7.175V8.825C0.5 10.55 0.725 12.275 0.725 12.275C0.725 12.275 0.95 13.775 1.55 14.375C2.375 15.2 3.425 15.2 3.875 15.275C5.525 15.425 11 15.5 11 15.5C11 15.5 15.425 15.5 18.35 15.275C18.725 15.2 19.625 15.2 20.45 14.375C21.05 13.7 21.275 12.275 21.275 12.275C21.275 12.275 21.5 10.55 21.5 8.825V7.175C21.5 5.45 21.275 3.725 21.275 3.725ZM8.825 10.775V4.775L14.525 7.775L8.825 10.775Z" fill="#83919F"/>
</svg>
